<svg height="474.75" version="1.1" width="620.640625" xmlns="http://www.w3.org/2000/svg" xmlns:xlink="http://www.w3.org/1999/xlink" style="overflow: hidden; position: relative;" viewBox="0 0 620.640625 474.75" preserveAspectRatio="xMidYMid meet"><desc style="-webkit-tap-highlight-color: rgba(0, 0, 0, 0);">Created with Raphaël 2.1.4</desc><defs style="-webkit-tap-highlight-color: rgba(0, 0, 0, 0);"><path stroke-linecap="round" d="M5,0 0,2.5 5,5z" id="raphael-marker-block" style="-webkit-tap-highlight-color: rgba(0, 0, 0, 0);"></path><marker id="raphael-marker-endblock33-obj12" markerHeight="3" markerWidth="3" orient="auto" refX="1.5" refY="1.5" style="-webkit-tap-highlight-color: rgba(0, 0, 0, 0);"><use xmlns:xlink="http://www.w3.org/1999/xlink" xlink:href="#raphael-marker-block" transform="rotate(180 1.5 1.5) scale(0.6,0.6)" stroke-width="1.6667" fill="black" stroke="none" style="-webkit-tap-highlight-color: rgba(0, 0, 0, 0);"></use></marker><marker id="raphael-marker-endblock33-obj13" markerHeight="3" markerWidth="3" orient="auto" refX="1.5" refY="1.5" style="-webkit-tap-highlight-color: rgba(0, 0, 0, 0);"><use xmlns:xlink="http://www.w3.org/1999/xlink" xlink:href="#raphael-marker-block" transform="rotate(180 1.5 1.5) scale(0.6,0.6)" stroke-width="1.6667" fill="black" stroke="none" style="-webkit-tap-highlight-color: rgba(0, 0, 0, 0);"></use></marker><marker id="raphael-marker-endblock33-obj14" markerHeight="3" markerWidth="3" orient="auto" refX="1.5" refY="1.5" style="-webkit-tap-highlight-color: rgba(0, 0, 0, 0);"><use xmlns:xlink="http://www.w3.org/1999/xlink" xlink:href="#raphael-marker-block" transform="rotate(180 1.5 1.5) scale(0.6,0.6)" stroke-width="1.6667" fill="black" stroke="none" style="-webkit-tap-highlight-color: rgba(0, 0, 0, 0);"></use></marker><marker id="raphael-marker-endblock33-obj15" markerHeight="3" markerWidth="3" orient="auto" refX="1.5" refY="1.5" style="-webkit-tap-highlight-color: rgba(0, 0, 0, 0);"><use xmlns:xlink="http://www.w3.org/1999/xlink" xlink:href="#raphael-marker-block" transform="rotate(180 1.5 1.5) scale(0.6,0.6)" stroke-width="1.6667" fill="black" stroke="none" style="-webkit-tap-highlight-color: rgba(0, 0, 0, 0);"></use></marker><marker id="raphael-marker-endblock33-obj16" markerHeight="3" markerWidth="3" orient="auto" refX="1.5" refY="1.5" style="-webkit-tap-highlight-color: rgba(0, 0, 0, 0);"><use xmlns:xlink="http://www.w3.org/1999/xlink" xlink:href="#raphael-marker-block" transform="rotate(180 1.5 1.5) scale(0.6,0.6)" stroke-width="1.6667" fill="black" stroke="none" style="-webkit-tap-highlight-color: rgba(0, 0, 0, 0);"></use></marker><marker id="raphael-marker-endblock33-obj18" markerHeight="3" markerWidth="3" orient="auto" refX="1.5" refY="1.5" style="-webkit-tap-highlight-color: rgba(0, 0, 0, 0);"><use xmlns:xlink="http://www.w3.org/1999/xlink" xlink:href="#raphael-marker-block" transform="rotate(180 1.5 1.5) scale(0.6,0.6)" stroke-width="1.6667" fill="black" stroke="none" style="-webkit-tap-highlight-color: rgba(0, 0, 0, 0);"></use></marker></defs><rect x="0" y="0" width="49.5625" height="36" rx="20" ry="20" fill="#ffffff" stroke="#000000" style="-webkit-tap-highlight-color: rgba(0, 0, 0, 0);" stroke-width="3" class="flowchart" id="st" transform="matrix(1,0,0,1,78.7188,36.75)"></rect><text x="10" y="18" text-anchor="start" font-family="&quot;Arial&quot;" font-size="14px" stroke="none" fill="#000000" style="-webkit-tap-highlight-color: rgba(0, 0, 0, 0); text-anchor: start; font-family: Arial; font-size: 14px;" id="stt" class="flowchartt" transform="matrix(1,0,0,1,78.7188,36.75)" stroke-width="1"><tspan dy="5" style="-webkit-tap-highlight-color: rgba(0, 0, 0, 0);">Start</tspan></text><rect x="0" y="0" width="94.203125" height="36" rx="0" ry="0" fill="#ffffff" stroke="#000000" style="-webkit-tap-highlight-color: rgba(0, 0, 0, 0);" stroke-width="3" class="flowchart" id="op1" transform="matrix(1,0,0,1,56.3984,159.5)"></rect><text x="10" y="18" text-anchor="start" font-family="&quot;Arial&quot;" font-size="14px" stroke="none" fill="#000000" style="-webkit-tap-highlight-color: rgba(0, 0, 0, 0); text-anchor: start; font-family: Arial; font-size: 14px;" id="op1t" class="flowchartt" transform="matrix(1,0,0,1,56.3984,159.5)" stroke-width="1"><tspan dy="5" style="-webkit-tap-highlight-color: rgba(0, 0, 0, 0);">let result = ''</tspan></text><rect x="0" y="0" width="90.703125" height="36" rx="0" ry="0" fill="#ffffff" stroke="#000000" style="-webkit-tap-highlight-color: rgba(0, 0, 0, 0);" stroke-width="3" class="flowchart" id="op2" transform="matrix(1,0,0,1,58.1484,282.25)"></rect><text x="10" y="18" text-anchor="start" font-family="&quot;Arial&quot;" font-size="14px" stroke="none" fill="#000000" style="-webkit-tap-highlight-color: rgba(0, 0, 0, 0); text-anchor: start; font-family: Arial; font-size: 14px;" id="op2t" class="flowchartt" transform="matrix(1,0,0,1,58.1484,282.25)" stroke-width="1"><tspan dy="5" style="-webkit-tap-highlight-color: rgba(0, 0, 0, 0);">result += 'x'</tspan></text><path fill="#ffffff" stroke="#000000" d="M10,18L0,36L154.375,36L174.375,0L20,0L10,18" stroke-width="3" id="io" class="flowchart" style="-webkit-tap-highlight-color: rgba(0, 0, 0, 0);" transform="matrix(1,0,0,1,16.3125,405)"></path><text x="30" y="18" text-anchor="start" font-family="&quot;Arial&quot;" font-size="14px" stroke="none" fill="#000000" style="-webkit-tap-highlight-color: rgba(0, 0, 0, 0); text-anchor: start; font-family: Arial; font-size: 14px;" id="iot" class="flowchartt" transform="matrix(1,0,0,1,16.3125,405)" stroke-width="1"><tspan dy="5" style="-webkit-tap-highlight-color: rgba(0, 0, 0, 0);">console.log(result)</tspan><tspan dy="16.8" x="30" style="-webkit-tap-highlight-color: rgba(0, 0, 0, 0);"></tspan></text><path fill="#ffffff" stroke="#000000" d="M48.75,24.375L0,48.75L97.5,97.5L195,48.75L97.5,0L0,48.75" stroke-width="3" id="cond" class="flowchart" style="-webkit-tap-highlight-color: rgba(0, 0, 0, 0);" transform="matrix(1,0,0,1,246.6875,374.25)"></path><text x="53.75" y="48.75" text-anchor="start" font-family="&quot;Arial&quot;" font-size="14px" stroke="none" fill="#000000" style="-webkit-tap-highlight-color: rgba(0, 0, 0, 0); text-anchor: start; font-family: Arial; font-size: 14px;" id="condt" class="flowchartt" transform="matrix(1,0,0,1,246.6875,374.25)" stroke-width="1"><tspan dy="5" style="-webkit-tap-highlight-color: rgba(0, 0, 0, 0);">result.length &lt; 4</tspan></text><rect x="0" y="0" width="44.90625" height="36" rx="20" ry="20" fill="#ffffff" stroke="#000000" style="-webkit-tap-highlight-color: rgba(0, 0, 0, 0);" stroke-width="3" class="flowchart" id="e" transform="matrix(1,0,0,1,572.7344,405)"></rect><text x="10" y="18" text-anchor="start" font-family="&quot;Arial&quot;" font-size="14px" stroke="none" fill="#000000" style="-webkit-tap-highlight-color: rgba(0, 0, 0, 0); text-anchor: start; font-family: Arial; font-size: 14px;" id="et" class="flowchartt" transform="matrix(1,0,0,1,572.7344,405)" stroke-width="1"><tspan dy="5" style="-webkit-tap-highlight-color: rgba(0, 0, 0, 0);">End</tspan></text><path fill="none" stroke="#000000" d="M103.5,72.75C103.5,72.75,103.5,137.2181225270033,103.5,155.00351765774394" stroke-width="3" marker-end="url(#raphael-marker-endblock33-obj12)" style="-webkit-tap-highlight-color: rgba(0, 0, 0, 0);"></path><path fill="none" stroke="#000000" d="M103.5,195.5C103.5,195.5,103.5,259.9681225270033,103.5,277.75351765774394" stroke-width="3" marker-end="url(#raphael-marker-endblock33-obj13)" style="-webkit-tap-highlight-color: rgba(0, 0, 0, 0);"></path><path fill="none" stroke="#000000" d="M103.5,318.25C103.5,318.25,103.5,382.7181225270033,103.5,400.50351765774394" stroke-width="3" marker-end="url(#raphael-marker-endblock33-obj14)" style="-webkit-tap-highlight-color: rgba(0, 0, 0, 0);"></path><path fill="none" stroke="#000000" d="M180.6875,423C180.6875,423,227.32100784778595,423,242.18999252776848,423" stroke-width="3" marker-end="url(#raphael-marker-endblock33-obj15)" style="-webkit-tap-highlight-color: rgba(0, 0, 0, 0);"></path><path fill="none" stroke="#000000" d="M344.1875,471.75C344.1875,471.75,344.1875,496.75,344.1875,496.75C344.1875,496.75,464.53125,496.75,464.53125,496.75C464.53125,496.75,464.53125,257.25,464.53125,257.25C464.53125,257.25,103.5,257.25,103.5,257.25C103.5,257.25,103.5,270.5539712905884,103.5,277.7516276333481" stroke-width="3" marker-end="url(#raphael-marker-endblock33-obj16)" style="-webkit-tap-highlight-color: rgba(0, 0, 0, 0);"></path><text x="349.1875" y="481.75" text-anchor="start" font-family="&quot;Arial&quot;" font-size="14px" stroke="none" fill="#000000" style="-webkit-tap-highlight-color: rgba(0, 0, 0, 0); text-anchor: start; font-family: Arial; font-size: 14px;" stroke-width="1"><tspan dy="5" style="-webkit-tap-highlight-color: rgba(0, 0, 0, 0);">yes</tspan></text><path fill="none" stroke="#000000" d="M441.6875,423C441.6875,423,458.53125,423,458.53125,423C458.53125,423,464.53125,411,470.53125,423C470.53125,423,548.5187415666878,423,568.2440934375591,423" stroke-width="3" marker-end="url(#raphael-marker-endblock33-obj18)" style="-webkit-tap-highlight-color: rgba(0, 0, 0, 0);"></path><text x="446.6875" y="413" text-anchor="start" font-family="&quot;Arial&quot;" font-size="14px" stroke="none" fill="#000000" style="-webkit-tap-highlight-color: rgba(0, 0, 0, 0); text-anchor: start; font-family: Arial; font-size: 14px;" stroke-width="1"><tspan dy="5" style="-webkit-tap-highlight-color: rgba(0, 0, 0, 0);">no</tspan></text></svg>