<?xml version="1.0" encoding="UTF-8" standalone="no"?>
<!DOCTYPE svg PUBLIC "-//W3C//DTD SVG 1.1//EN"
 "http://www.w3.org/Graphics/SVG/1.1/DTD/svg11.dtd">
<!-- Generated by graphviz version 2.40.1 (20161225.0304)
 -->
<!-- Title: %3 Pages: 1 -->
<svg width="465pt" height="191pt"
 viewBox="0.00 0.00 465.00 191.00" xmlns="http://www.w3.org/2000/svg" xmlns:xlink="http://www.w3.org/1999/xlink">
<g id="graph0" class="graph" transform="scale(1 1) rotate(0) translate(4 187)">
<title>%3</title>
<polygon fill="#ffffff" stroke="transparent" points="-4,4 -4,-187 460.9956,-187 460.9956,4 -4,4"/>
<!-- Array: -->
<g id="node1" class="node">
<title>Array:</title>
<text text-anchor="middle" x="34.9956" y="-159.1" font-family="Times,serif" font-size="18.00" fill="#ff0000">Array:</text>
</g>
<!-- reduce: -->
<g id="node2" class="node">
<title>reduce:</title>
<text text-anchor="middle" x="34.9956" y="-86.1" font-family="Times,serif" font-size="18.00" fill="#ff0000">reduce:</text>
</g>
<!-- Array:&#45;&gt;reduce: -->
<g id="edge1" class="edge">
<title>Array:&#45;&gt;reduce:</title>
<path fill="none" stroke="#ffffff" d="M34.9956,-146.4551C34.9956,-138.3828 34.9956,-128.6764 34.9956,-119.6817"/>
<polygon fill="#ffffff" stroke="#ffffff" points="38.4957,-119.5903 34.9956,-109.5904 31.4957,-119.5904 38.4957,-119.5903"/>
</g>
<!-- Return: -->
<g id="node3" class="node">
<title>Return:</title>
<text text-anchor="middle" x="34.9956" y="-13.1" font-family="Times,serif" font-size="18.00" fill="#ff0000">Return:</text>
</g>
<!-- reduce:&#45;&gt;Return: -->
<g id="edge2" class="edge">
<title>reduce:&#45;&gt;Return:</title>
<path fill="none" stroke="#ffffff" d="M34.9956,-73.4551C34.9956,-65.3828 34.9956,-55.6764 34.9956,-46.6817"/>
<polygon fill="#ffffff" stroke="#ffffff" points="38.4957,-46.5903 34.9956,-36.5904 31.4957,-46.5904 38.4957,-46.5903"/>
</g>
<!-- values -->
<g id="node4" class="node">
<title>values</title>
<polygon fill="#add8e6" stroke="#0000ff" points="83.9956,-146.5 83.9956,-182.5 425.9956,-182.5 425.9956,-146.5 83.9956,-146.5"/>
<text text-anchor="middle" x="112.4956" y="-160.3" font-family="Times,serif" font-size="14.00" fill="#000000">1</text>
<polyline fill="none" stroke="#0000ff" points="140.9956,-146.5 140.9956,-182.5 "/>
<text text-anchor="middle" x="169.4956" y="-160.3" font-family="Times,serif" font-size="14.00" fill="#000000">2</text>
<polyline fill="none" stroke="#0000ff" points="197.9956,-146.5 197.9956,-182.5 "/>
<text text-anchor="middle" x="226.4956" y="-160.3" font-family="Times,serif" font-size="14.00" fill="#000000">3</text>
<polyline fill="none" stroke="#0000ff" points="254.9956,-146.5 254.9956,-182.5 "/>
<text text-anchor="middle" x="283.4956" y="-160.3" font-family="Times,serif" font-size="14.00" fill="#000000">4</text>
<polyline fill="none" stroke="#0000ff" points="311.9956,-146.5 311.9956,-182.5 "/>
<text text-anchor="middle" x="340.4956" y="-160.3" font-family="Times,serif" font-size="14.00" fill="#000000">5</text>
<polyline fill="none" stroke="#0000ff" points="368.9956,-146.5 368.9956,-182.5 "/>
<text text-anchor="middle" x="397.4956" y="-160.3" font-family="Times,serif" font-size="14.00" fill="#000000">6</text>
</g>
<!-- functions -->
<g id="node5" class="node">
<title>functions</title>
<polygon fill="none" stroke="#ffffff" points="105.9956,-73.5 105.9956,-109.5 447.9956,-109.5 447.9956,-73.5 105.9956,-73.5"/>
<text text-anchor="middle" x="140.6343" y="-87.3" font-family="Times,serif" font-size="14.00" fill="#000000">f(x,y)=x+y</text>
<polyline fill="none" stroke="#ffffff" points="175.2729,-73.5 175.2729,-109.5 "/>
<text text-anchor="middle" x="209.4116" y="-87.3" font-family="Times,serif" font-size="14.00" fill="#000000">f(x,y)=x+y</text>
<polyline fill="none" stroke="#ffffff" points="243.5503,-73.5 243.5503,-109.5 "/>
<text text-anchor="middle" x="277.689" y="-87.3" font-family="Times,serif" font-size="14.00" fill="#000000">f(x,y)=x+y</text>
<polyline fill="none" stroke="#ffffff" points="311.8276,-73.5 311.8276,-109.5 "/>
<text text-anchor="middle" x="345.9663" y="-87.3" font-family="Times,serif" font-size="14.00" fill="#000000">f(x,y)=x+y</text>
<polyline fill="none" stroke="#ffffff" points="380.105,-73.5 380.105,-109.5 "/>
<text text-anchor="middle" x="414.2437" y="-87.3" font-family="Times,serif" font-size="14.00" fill="#000000">f(x,y)=x+y</text>
</g>
<!-- values&#45;&gt;functions -->
<g id="edge3" class="edge">
<title>values:f0&#45;&gt;functions:f0</title>
<path fill="none" stroke="#0000ff" d="M111.9956,-146.5C111.9956,-129.6872 130.7737,-129.5033 138.109,-119.1861"/>
<polygon fill="#0000ff" stroke="#0000ff" points="141.4937,-120.0831 140.9956,-109.5 134.7852,-118.0838 141.4937,-120.0831"/>
</g>
<!-- values&#45;&gt;functions -->
<g id="edge4" class="edge">
<title>values:f1&#45;&gt;functions:f0</title>
<path fill="none" stroke="#0000ff" d="M168.9956,-146.5C168.9956,-129.9054 150.865,-129.4129 143.7827,-119.1082"/>
<polygon fill="#0000ff" stroke="#0000ff" points="147.143,-118.129 140.9956,-109.5 140.4202,-120.0792 147.143,-118.129"/>
</g>
<!-- values&#45;&gt;functions -->
<g id="edge5" class="edge">
<title>values:f2&#45;&gt;functions:f1</title>
<path fill="none" stroke="#0000ff" d="M225.9956,-146.5C225.9956,-132.503 215.8261,-128.8498 211.2181,-119.5398"/>
<polygon fill="#0000ff" stroke="#0000ff" points="214.5743,-118.5072 208.9956,-109.5 207.7397,-120.0201 214.5743,-118.5072"/>
</g>
<!-- values&#45;&gt;functions -->
<g id="edge6" class="edge">
<title>values:f3&#45;&gt;functions:f2</title>
<path fill="none" stroke="#0000ff" d="M283.9956,-146.5C283.9956,-133.8754 280.5499,-128.7037 278.8809,-119.6891"/>
<polygon fill="#0000ff" stroke="#0000ff" points="282.3482,-119.1595 277.9956,-109.5 275.3745,-119.7655 282.3482,-119.1595"/>
</g>
<!-- values&#45;&gt;functions -->
<g id="edge7" class="edge">
<title>values:f4&#45;&gt;functions:f3</title>
<path fill="none" stroke="#0000ff" d="M340.9956,-146.5C340.9956,-133.9249 343.867,-128.6901 345.2578,-119.6705"/>
<polygon fill="#0000ff" stroke="#0000ff" points="348.7628,-119.727 345.9956,-109.5 341.7812,-119.2205 348.7628,-119.727"/>
</g>
<!-- values&#45;&gt;functions -->
<g id="edge8" class="edge">
<title>values:f5&#45;&gt;functions:f4</title>
<path fill="none" stroke="#0000ff" d="M397.9956,-146.5C397.9956,-132.643 407.5669,-128.805 411.9039,-119.4878"/>
<polygon fill="#0000ff" stroke="#0000ff" points="415.3714,-120.0051 413.9956,-109.5 408.52,-118.5702 415.3714,-120.0051"/>
</g>
<!-- results -->
<g id="node6" class="node">
<title>results</title>
<polygon fill="#add8e6" stroke="#0000ff" points="114.9956,-.5 114.9956,-36.5 456.9956,-36.5 456.9956,-.5 114.9956,-.5"/>
<text text-anchor="middle" x="146.9956" y="-14.3" font-family="Times,serif" font-size="14.00" fill="#000000">3</text>
<polyline fill="none" stroke="#0000ff" points="178.9956,-.5 178.9956,-36.5 "/>
<text text-anchor="middle" x="210.9956" y="-14.3" font-family="Times,serif" font-size="14.00" fill="#000000">6</text>
<polyline fill="none" stroke="#0000ff" points="242.9956,-.5 242.9956,-36.5 "/>
<text text-anchor="middle" x="278.4956" y="-14.3" font-family="Times,serif" font-size="14.00" fill="#000000">10</text>
<polyline fill="none" stroke="#0000ff" points="313.9956,-.5 313.9956,-36.5 "/>
<text text-anchor="middle" x="349.4956" y="-14.3" font-family="Times,serif" font-size="14.00" fill="#000000">15</text>
<polyline fill="none" stroke="#0000ff" points="384.9956,-.5 384.9956,-36.5 "/>
<text text-anchor="middle" x="420.9956" y="-14.3" font-family="Times,serif" font-size="14.00" fill="#000000">26</text>
</g>
<!-- functions&#45;&gt;results -->
<g id="edge9" class="edge">
<title>functions:f0&#45;&gt;results:f0</title>
<path fill="none" stroke="#0000ff" d="M140.9956,-73.5C140.9956,-60.8754 144.4413,-55.7037 146.1103,-46.6891"/>
<polygon fill="#0000ff" stroke="#0000ff" points="149.6167,-46.7655 146.9956,-36.5 142.643,-46.1595 149.6167,-46.7655"/>
</g>
<!-- functions&#45;&gt;results -->
<g id="edge10" class="edge">
<title>functions:f1&#45;&gt;results:f1</title>
<path fill="none" stroke="#0000ff" d="M208.9956,-73.5C208.9956,-61.02 210.1442,-55.6641 210.7005,-46.6349"/>
<polygon fill="#0000ff" stroke="#0000ff" points="214.203,-46.5977 210.9956,-36.5 207.2059,-46.3939 214.203,-46.5977"/>
</g>
<!-- functions&#45;&gt;results -->
<g id="edge11" class="edge">
<title>functions:f2&#45;&gt;results:f2</title>
<path fill="none" stroke="#0000ff" d="M277.9956,-73.5C277.9956,-61.0382 277.9956,-55.6592 277.9956,-46.6281"/>
<polygon fill="#0000ff" stroke="#0000ff" points="281.4957,-46.5 277.9956,-36.5 274.4957,-46.5 281.4957,-46.5"/>
</g>
<!-- functions&#45;&gt;results -->
<g id="edge12" class="edge">
<title>functions:f3&#45;&gt;results:f3</title>
<path fill="none" stroke="#0000ff" d="M345.9956,-73.5C345.9956,-60.9656 348.2927,-55.679 349.4054,-46.6553"/>
<polygon fill="#0000ff" stroke="#0000ff" points="352.9094,-46.6863 349.9956,-36.5 345.9212,-46.28 352.9094,-46.6863"/>
</g>
<!-- functions&#45;&gt;results -->
<g id="edge13" class="edge">
<title>functions:f4&#45;&gt;results:f4</title>
<path fill="none" stroke="#0000ff" d="M413.9956,-73.5C413.9956,-60.8171 418.0156,-55.7196 419.9627,-46.7109"/>
<polygon fill="#0000ff" stroke="#0000ff" points="423.4713,-46.8015 420.9956,-36.5 416.5069,-46.097 423.4713,-46.8015"/>
</g>
<!-- results&#45;&gt;functions -->
<g id="edge14" class="edge">
<title>results:f0&#45;&gt;functions:f1</title>
<path fill="none" stroke="#0000ff" d="M146.9956,-36.5C146.9956,-64.3275 193.6205,-47.5845 206.0052,-63.573"/>
<polygon fill="#0000ff" stroke="#0000ff" points="202.7599,-64.9346 208.9956,-73.5 209.4624,-62.9155 202.7599,-64.9346"/>
</g>
<!-- results&#45;&gt;functions -->
<g id="edge15" class="edge">
<title>results:f1&#45;&gt;functions:f2</title>
<path fill="none" stroke="#0000ff" d="M210.9956,-36.5C210.9956,-66.2646 262.2925,-46.2252 275.1167,-63.5389"/>
<polygon fill="#0000ff" stroke="#0000ff" points="271.8566,-64.865 277.9956,-73.5 278.5814,-62.9214 271.8566,-64.865"/>
</g>
<!-- results&#45;&gt;functions -->
<g id="edge16" class="edge">
<title>results:f2&#45;&gt;functions:f3</title>
<path fill="none" stroke="#0000ff" d="M277.9956,-36.5C277.9956,-66.6056 330.0581,-46.0121 343.0737,-63.4429"/>
<polygon fill="#0000ff" stroke="#0000ff" points="339.8446,-64.8736 345.9956,-73.5 346.5666,-62.9206 339.8446,-64.8736"/>
</g>
<!-- results&#45;&gt;functions -->
<g id="edge17" class="edge">
<title>results:f3&#45;&gt;functions:f4</title>
<path fill="none" stroke="#0000ff" d="M349.9956,-36.5C349.9956,-65.2489 398.9956,-46.8601 411.2456,-63.8245"/>
<polygon fill="#0000ff" stroke="#0000ff" points="407.8949,-64.8379 413.9956,-73.5 414.6282,-62.9241 407.8949,-64.8379"/>
</g>
</g>
</svg>
