<?xml version="1.0" encoding="UTF-8" standalone="no"?>
<!DOCTYPE svg PUBLIC "-//W3C//DTD SVG 1.1//EN"
 "http://www.w3.org/Graphics/SVG/1.1/DTD/svg11.dtd">
<!-- Generated by graphviz version 2.40.1 (20161225.0304)
 -->
<!-- Title: %3 Pages: 1 -->
<svg width="475pt" height="337pt"
 viewBox="0.00 0.00 474.75 337.00" xmlns="http://www.w3.org/2000/svg" xmlns:xlink="http://www.w3.org/1999/xlink">
<g id="graph0" class="graph" transform="scale(1 1) rotate(0) translate(4 333)">
<title>%3</title>
<polygon fill="#ffffff" stroke="transparent" points="-4,4 -4,-333 470.7456,-333 470.7456,4 -4,4"/>
<!-- Array: -->
<g id="node1" class="node">
<title>Array:</title>
<text text-anchor="middle" x="41.7456" y="-305.1" font-family="Times,serif" font-size="18.00" fill="#ff0000">Array:</text>
</g>
<!-- Filter: -->
<g id="node2" class="node">
<title>Filter:</title>
<text text-anchor="middle" x="41.7456" y="-232.1" font-family="Times,serif" font-size="18.00" fill="#ff0000">Filter:</text>
</g>
<!-- Array:&#45;&gt;Filter: -->
<g id="edge1" class="edge">
<title>Array:&#45;&gt;Filter:</title>
<path fill="none" stroke="#ffffff" d="M41.7456,-292.4551C41.7456,-284.3828 41.7456,-274.6764 41.7456,-265.6817"/>
<polygon fill="#ffffff" stroke="#ffffff" points="45.2457,-265.5903 41.7456,-255.5904 38.2457,-265.5904 45.2457,-265.5903"/>
</g>
<!-- Return 1: -->
<g id="node3" class="node">
<title>Return 1:</title>
<text text-anchor="middle" x="41.7456" y="-159.1" font-family="Times,serif" font-size="18.00" fill="#ff0000">Return 1:</text>
</g>
<!-- Filter:&#45;&gt;Return 1: -->
<g id="edge2" class="edge">
<title>Filter:&#45;&gt;Return 1:</title>
<path fill="none" stroke="#ffffff" d="M41.7456,-219.4551C41.7456,-211.3828 41.7456,-201.6764 41.7456,-192.6817"/>
<polygon fill="#ffffff" stroke="#ffffff" points="45.2457,-192.5903 41.7456,-182.5904 38.2457,-192.5904 45.2457,-192.5903"/>
</g>
<!-- Map: -->
<g id="node4" class="node">
<title>Map:</title>
<text text-anchor="middle" x="41.7456" y="-86.1" font-family="Times,serif" font-size="18.00" fill="#ff0000">Map:</text>
</g>
<!-- Return 1:&#45;&gt;Map: -->
<g id="edge3" class="edge">
<title>Return 1:&#45;&gt;Map:</title>
<path fill="none" stroke="#ffffff" d="M41.7456,-146.4551C41.7456,-138.3828 41.7456,-128.6764 41.7456,-119.6817"/>
<polygon fill="#ffffff" stroke="#ffffff" points="45.2457,-119.5903 41.7456,-109.5904 38.2457,-119.5904 45.2457,-119.5903"/>
</g>
<!-- Return 2: -->
<g id="node5" class="node">
<title>Return 2:</title>
<text text-anchor="middle" x="41.7456" y="-13.1" font-family="Times,serif" font-size="18.00" fill="#ff0000">Return 2:</text>
</g>
<!-- Map:&#45;&gt;Return 2: -->
<g id="edge4" class="edge">
<title>Map:&#45;&gt;Return 2:</title>
<path fill="none" stroke="#ffffff" d="M41.7456,-73.4551C41.7456,-65.3828 41.7456,-55.6764 41.7456,-46.6817"/>
<polygon fill="#ffffff" stroke="#ffffff" points="45.2457,-46.5903 41.7456,-36.5904 38.2457,-46.5904 45.2457,-46.5903"/>
</g>
<!-- values -->
<g id="node6" class="node">
<title>values</title>
<polygon fill="#add8e6" stroke="#0000ff" points="110.7456,-292.5 110.7456,-328.5 452.7456,-328.5 452.7456,-292.5 110.7456,-292.5"/>
<text text-anchor="middle" x="139.2456" y="-306.3" font-family="Times,serif" font-size="14.00" fill="#000000">1</text>
<polyline fill="none" stroke="#0000ff" points="167.7456,-292.5 167.7456,-328.5 "/>
<text text-anchor="middle" x="196.2456" y="-306.3" font-family="Times,serif" font-size="14.00" fill="#000000">2</text>
<polyline fill="none" stroke="#0000ff" points="224.7456,-292.5 224.7456,-328.5 "/>
<text text-anchor="middle" x="253.2456" y="-306.3" font-family="Times,serif" font-size="14.00" fill="#000000">3</text>
<polyline fill="none" stroke="#0000ff" points="281.7456,-292.5 281.7456,-328.5 "/>
<text text-anchor="middle" x="310.2456" y="-306.3" font-family="Times,serif" font-size="14.00" fill="#000000">4</text>
<polyline fill="none" stroke="#0000ff" points="338.7456,-292.5 338.7456,-328.5 "/>
<text text-anchor="middle" x="367.2456" y="-306.3" font-family="Times,serif" font-size="14.00" fill="#000000">5</text>
<polyline fill="none" stroke="#0000ff" points="395.7456,-292.5 395.7456,-328.5 "/>
<text text-anchor="middle" x="424.2456" y="-306.3" font-family="Times,serif" font-size="14.00" fill="#000000">6</text>
</g>
<!-- functions1 -->
<g id="node7" class="node">
<title>functions1</title>
<polygon fill="none" stroke="#ffffff" points="120.7456,-219.5 120.7456,-255.5 462.7456,-255.5 462.7456,-219.5 120.7456,-219.5"/>
<text text-anchor="middle" x="291.2964" y="-233.3" font-family="Times,serif" font-size="14.00" fill="#000000">f(x) = x % 2 != 0</text>
</g>
<!-- values&#45;&gt;functions1 -->
<g id="edge5" class="edge">
<title>values:f0&#45;&gt;functions1:f0</title>
<path fill="none" stroke="#0000ff" d="M138.7456,-292.5C138.7456,-279.8576 143.4289,-269.9553 151.1568,-262.2215"/>
<polygon fill="#0000ff" stroke="#0000ff" points="153.5675,-264.7704 159.0628,-255.7122 149.1181,-259.3664 153.5675,-264.7704"/>
</g>
<!-- values&#45;&gt;functions1 -->
<g id="edge6" class="edge">
<title>values:f1&#45;&gt;functions1:f0</title>
<path fill="none" stroke="#0000ff" d="M195.7456,-292.5C195.7456,-279.0303 202.949,-268.813 213.4094,-261.0771"/>
<polygon fill="#0000ff" stroke="#0000ff" points="215.415,-263.9495 221.978,-255.6322 211.6607,-258.0414 215.415,-263.9495"/>
</g>
<!-- values&#45;&gt;functions1 -->
<g id="edge7" class="edge">
<title>values:f2&#45;&gt;functions1:f0</title>
<path fill="none" stroke="#0000ff" d="M252.7456,-292.5C252.7456,-281.965 257.5659,-272.0396 263.8171,-263.5973"/>
<polygon fill="#0000ff" stroke="#0000ff" points="266.702,-265.6029 270.4199,-255.6817 261.3266,-261.119 266.702,-265.6029"/>
</g>
<!-- values&#45;&gt;functions1 -->
<g id="edge8" class="edge">
<title>values:f3&#45;&gt;functions1:f0</title>
<path fill="none" stroke="#0000ff" d="M310.7456,-292.5C310.7456,-283.3511 308.3678,-273.7922 305.2946,-265.2583"/>
<polygon fill="#0000ff" stroke="#0000ff" points="308.4623,-263.7554 301.4682,-255.7971 301.9729,-266.3799 308.4623,-263.7554"/>
</g>
<!-- values&#45;&gt;functions1 -->
<g id="edge9" class="edge">
<title>values:f4&#45;&gt;functions1:f0</title>
<path fill="none" stroke="#0000ff" d="M367.7456,-292.5C367.7456,-279.6485 360.5253,-269.4941 350.5356,-261.5952"/>
<polygon fill="#0000ff" stroke="#0000ff" points="352.2383,-258.5183 342.0155,-255.7355 348.2716,-264.286 352.2383,-258.5183"/>
</g>
<!-- values&#45;&gt;functions1 -->
<g id="edge10" class="edge">
<title>values:f5&#45;&gt;functions1:f0</title>
<path fill="none" stroke="#0000ff" d="M424.7456,-292.5C424.7456,-279.3234 419.102,-269.2416 410.1398,-261.5386"/>
<polygon fill="#0000ff" stroke="#0000ff" points="412.047,-258.5993 401.8821,-255.6119 407.9654,-264.2862 412.047,-258.5993"/>
</g>
<!-- results1 -->
<g id="node8" class="node">
<title>results1</title>
<polygon fill="#add8e6" stroke="#0000ff" points="120.7456,-146.5 120.7456,-182.5 462.7456,-182.5 462.7456,-146.5 120.7456,-146.5"/>
<text text-anchor="middle" x="177.7456" y="-160.3" font-family="Times,serif" font-size="14.00" fill="#000000">1</text>
<polyline fill="none" stroke="#0000ff" points="234.7456,-146.5 234.7456,-182.5 "/>
<text text-anchor="middle" x="291.7456" y="-160.3" font-family="Times,serif" font-size="14.00" fill="#000000">3</text>
<polyline fill="none" stroke="#0000ff" points="348.7456,-146.5 348.7456,-182.5 "/>
<text text-anchor="middle" x="405.7456" y="-160.3" font-family="Times,serif" font-size="14.00" fill="#000000">5</text>
</g>
<!-- functions1&#45;&gt;results1 -->
<g id="edge11" class="edge">
<title>functions1:f0&#45;&gt;results1:f0</title>
<path fill="none" stroke="#0000ff" d="M202.7634,-219.4094C191.2668,-213.0027 182.3367,-204.3295 179.0809,-192.5888"/>
<polygon fill="#0000ff" stroke="#0000ff" points="182.5275,-191.9543 177.7456,-182.5 175.588,-192.8728 182.5275,-191.9543"/>
</g>
<!-- functions1&#45;&gt;results1 -->
<g id="edge12" class="edge">
<title>functions1:f0&#45;&gt;results1:f2</title>
<path fill="none" stroke="#0000ff" d="M291.7456,-219.1667C291.7456,-211.3965 291.7456,-202.0133 291.7456,-192.775"/>
<polygon fill="#0000ff" stroke="#0000ff" points="295.2457,-192.5 291.7456,-182.5 288.2457,-192.5 295.2457,-192.5"/>
</g>
<!-- functions1&#45;&gt;results1 -->
<g id="edge13" class="edge">
<title>functions1:f0&#45;&gt;results1:f4</title>
<path fill="none" stroke="#0000ff" d="M380.7278,-219.4094C392.2244,-213.0027 401.1545,-204.3295 404.4104,-192.5888"/>
<polygon fill="#0000ff" stroke="#0000ff" points="407.9032,-192.8728 405.7456,-182.5 400.9637,-191.9543 407.9032,-192.8728"/>
</g>
<!-- functions2 -->
<g id="node9" class="node">
<title>functions2</title>
<polygon fill="none" stroke="#ffffff" points="120.7456,-73.5 120.7456,-109.5 462.7456,-109.5 462.7456,-73.5 120.7456,-73.5"/>
<text text-anchor="middle" x="291.6865" y="-87.3" font-family="Times,serif" font-size="14.00" fill="#000000">f(x) = 2x</text>
</g>
<!-- results1&#45;&gt;functions2 -->
<g id="edge14" class="edge">
<title>results1:f0&#45;&gt;functions2:f0</title>
<path fill="none" stroke="#0000ff" d="M177.7456,-146.5C177.7456,-133.062 184.2507,-122.9056 194.153,-115.2299"/>
<polygon fill="#0000ff" stroke="#0000ff" points="196.3155,-117.9974 202.7634,-109.5906 192.4802,-112.1416 196.3155,-117.9974"/>
</g>
<!-- results1&#45;&gt;functions2 -->
<g id="edge15" class="edge">
<title>results1:f2&#45;&gt;functions2:f0</title>
<path fill="none" stroke="#0000ff" d="M291.7456,-146.5C291.7456,-137.9063 291.7456,-128.5572 291.7456,-120.0461"/>
<polygon fill="#0000ff" stroke="#0000ff" points="295.2457,-119.8333 291.7456,-109.8333 288.2457,-119.8334 295.2457,-119.8333"/>
</g>
<!-- results1&#45;&gt;functions2 -->
<g id="edge16" class="edge">
<title>results1:f4&#45;&gt;functions2:f0</title>
<path fill="none" stroke="#0000ff" d="M405.7456,-146.5C405.7456,-133.062 399.2405,-122.9056 389.3382,-115.2299"/>
<polygon fill="#0000ff" stroke="#0000ff" points="391.011,-112.1416 380.7278,-109.5906 387.1757,-117.9974 391.011,-112.1416"/>
</g>
<!-- results2 -->
<g id="node10" class="node">
<title>results2</title>
<polygon fill="#add8e6" stroke="#0000ff" points="124.7456,-.5 124.7456,-36.5 466.7456,-36.5 466.7456,-.5 124.7456,-.5"/>
<text text-anchor="middle" x="180.2456" y="-14.3" font-family="Times,serif" font-size="14.00" fill="#000000">2</text>
<polyline fill="none" stroke="#0000ff" points="235.7456,-.5 235.7456,-36.5 "/>
<text text-anchor="middle" x="291.7456" y="-14.3" font-family="Times,serif" font-size="14.00" fill="#000000">6</text>
<polyline fill="none" stroke="#0000ff" points="347.7456,-.5 347.7456,-36.5 "/>
<text text-anchor="middle" x="407.2456" y="-14.3" font-family="Times,serif" font-size="14.00" fill="#000000">10</text>
</g>
<!-- functions2&#45;&gt;results2 -->
<g id="edge17" class="edge">
<title>functions2:f0&#45;&gt;results2:f0</title>
<path fill="none" stroke="#0000ff" d="M204.8806,-73.3684C193.3573,-66.9647 184.3697,-58.2995 181.0907,-46.5745"/>
<polygon fill="#0000ff" stroke="#0000ff" points="184.5383,-45.9488 179.7456,-36.5 177.5999,-46.8753 184.5383,-45.9488"/>
</g>
<!-- functions2&#45;&gt;results2 -->
<g id="edge18" class="edge">
<title>functions2:f0&#45;&gt;results2:f2</title>
<path fill="none" stroke="#0000ff" d="M291.7456,-73.1667C291.7456,-65.3965 291.7456,-56.0133 291.7456,-46.775"/>
<polygon fill="#0000ff" stroke="#0000ff" points="295.2457,-46.5 291.7456,-36.5 288.2457,-46.5 295.2457,-46.5"/>
</g>
<!-- functions2&#45;&gt;results2 -->
<g id="edge19" class="edge">
<title>functions2:f0&#45;&gt;results2:f4</title>
<path fill="none" stroke="#0000ff" d="M382.8607,-73.4467C394.3229,-67.0356 403.1901,-58.3541 406.421,-46.6003"/>
<polygon fill="#0000ff" stroke="#0000ff" points="409.9155,-46.8702 407.7456,-36.5 402.9749,-45.96 409.9155,-46.8702"/>
</g>
</g>
</svg>
