<?xml version="1.0" encoding="UTF-8" standalone="no"?>
<!DOCTYPE svg PUBLIC "-//W3C//DTD SVG 1.1//EN"
 "http://www.w3.org/Graphics/SVG/1.1/DTD/svg11.dtd">
<!-- Generated by graphviz version 2.40.1 (20161225.0304)
 -->
<!-- Title: %3 Pages: 1 -->
<svg width="439pt" height="191pt"
 viewBox="0.00 0.00 439.00 191.00" xmlns="http://www.w3.org/2000/svg" xmlns:xlink="http://www.w3.org/1999/xlink">
<g id="graph0" class="graph" transform="scale(1 1) rotate(0) translate(4 187)">
<title>%3</title>
<polygon fill="#ffffff" stroke="transparent" points="-4,4 -4,-187 434.9956,-187 434.9956,4 -4,4"/>
<!-- Array: -->
<g id="node1" class="node">
<title>Array:</title>
<text text-anchor="middle" x="34.9956" y="-159.1" font-family="Times,serif" font-size="18.00" fill="#ff0000">Array:</text>
</g>
<!-- map: -->
<g id="node2" class="node">
<title>map:</title>
<text text-anchor="middle" x="34.9956" y="-86.1" font-family="Times,serif" font-size="18.00" fill="#ff0000">map:</text>
</g>
<!-- Array:&#45;&gt;map: -->
<g id="edge1" class="edge">
<title>Array:&#45;&gt;map:</title>
<path fill="none" stroke="#ffffff" d="M34.9956,-146.4551C34.9956,-138.3828 34.9956,-128.6764 34.9956,-119.6817"/>
<polygon fill="#ffffff" stroke="#ffffff" points="38.4957,-119.5903 34.9956,-109.5904 31.4957,-119.5904 38.4957,-119.5903"/>
</g>
<!-- Return: -->
<g id="node3" class="node">
<title>Return:</title>
<text text-anchor="middle" x="34.9956" y="-13.1" font-family="Times,serif" font-size="18.00" fill="#ff0000">Return:</text>
</g>
<!-- map:&#45;&gt;Return: -->
<g id="edge2" class="edge">
<title>map:&#45;&gt;Return:</title>
<path fill="none" stroke="#ffffff" d="M34.9956,-73.4551C34.9956,-65.3828 34.9956,-55.6764 34.9956,-46.6817"/>
<polygon fill="#ffffff" stroke="#ffffff" points="38.4957,-46.5903 34.9956,-36.5904 31.4957,-46.5904 38.4957,-46.5903"/>
</g>
<!-- values -->
<g id="node4" class="node">
<title>values</title>
<polygon fill="#add8e6" stroke="#0000ff" points="83.9956,-146.5 83.9956,-182.5 425.9956,-182.5 425.9956,-146.5 83.9956,-146.5"/>
<text text-anchor="middle" x="112.4956" y="-160.3" font-family="Times,serif" font-size="14.00" fill="#000000">1</text>
<polyline fill="none" stroke="#0000ff" points="140.9956,-146.5 140.9956,-182.5 "/>
<text text-anchor="middle" x="169.4956" y="-160.3" font-family="Times,serif" font-size="14.00" fill="#000000">2</text>
<polyline fill="none" stroke="#0000ff" points="197.9956,-146.5 197.9956,-182.5 "/>
<text text-anchor="middle" x="226.4956" y="-160.3" font-family="Times,serif" font-size="14.00" fill="#000000">3</text>
<polyline fill="none" stroke="#0000ff" points="254.9956,-146.5 254.9956,-182.5 "/>
<text text-anchor="middle" x="283.4956" y="-160.3" font-family="Times,serif" font-size="14.00" fill="#000000">4</text>
<polyline fill="none" stroke="#0000ff" points="311.9956,-146.5 311.9956,-182.5 "/>
<text text-anchor="middle" x="340.4956" y="-160.3" font-family="Times,serif" font-size="14.00" fill="#000000">5</text>
<polyline fill="none" stroke="#0000ff" points="368.9956,-146.5 368.9956,-182.5 "/>
<text text-anchor="middle" x="397.4956" y="-160.3" font-family="Times,serif" font-size="14.00" fill="#000000">6</text>
</g>
<!-- functions -->
<g id="node5" class="node">
<title>functions</title>
<polygon fill="none" stroke="#ffffff" points="82.9956,-73.5 82.9956,-109.5 424.9956,-109.5 424.9956,-73.5 82.9956,-73.5"/>
<text text-anchor="middle" x="111.9365" y="-87.3" font-family="Times,serif" font-size="14.00" fill="#000000">f(x)=2x</text>
<polyline fill="none" stroke="#ffffff" points="140.8774,-73.5 140.8774,-109.5 "/>
<text text-anchor="middle" x="169.3184" y="-87.3" font-family="Times,serif" font-size="14.00" fill="#000000">f(x)=2x</text>
<polyline fill="none" stroke="#ffffff" points="197.7593,-73.5 197.7593,-109.5 "/>
<text text-anchor="middle" x="226.2002" y="-87.3" font-family="Times,serif" font-size="14.00" fill="#000000">f(x)=2x</text>
<polyline fill="none" stroke="#ffffff" points="254.6411,-73.5 254.6411,-109.5 "/>
<text text-anchor="middle" x="283.082" y="-87.3" font-family="Times,serif" font-size="14.00" fill="#000000">f(x)=2x</text>
<polyline fill="none" stroke="#ffffff" points="311.5229,-73.5 311.5229,-109.5 "/>
<text text-anchor="middle" x="339.9639" y="-87.3" font-family="Times,serif" font-size="14.00" fill="#000000">f(x)=2x</text>
<polyline fill="none" stroke="#ffffff" points="368.4048,-73.5 368.4048,-109.5 "/>
<text text-anchor="middle" x="396.8457" y="-87.3" font-family="Times,serif" font-size="14.00" fill="#000000">f(x)=2x</text>
</g>
<!-- values&#45;&gt;functions -->
<g id="edge3" class="edge">
<title>values:f0&#45;&gt;functions:f0</title>
<path fill="none" stroke="#0000ff" d="M111.9956,-146.5C111.9956,-134.0382 111.9956,-128.6592 111.9956,-119.6281"/>
<polygon fill="#0000ff" stroke="#0000ff" points="115.4957,-119.5 111.9956,-109.5 108.4957,-119.5 115.4957,-119.5"/>
</g>
<!-- values&#45;&gt;functions -->
<g id="edge4" class="edge">
<title>values:f1&#45;&gt;functions:f1</title>
<path fill="none" stroke="#0000ff" d="M168.9956,-146.5C168.9956,-134.0382 168.9956,-128.6592 168.9956,-119.6281"/>
<polygon fill="#0000ff" stroke="#0000ff" points="172.4957,-119.5 168.9956,-109.5 165.4957,-119.5 172.4957,-119.5"/>
</g>
<!-- values&#45;&gt;functions -->
<g id="edge5" class="edge">
<title>values:f2&#45;&gt;functions:f2</title>
<path fill="none" stroke="#0000ff" d="M225.9956,-146.5C225.9956,-134.0382 225.9956,-128.6592 225.9956,-119.6281"/>
<polygon fill="#0000ff" stroke="#0000ff" points="229.4957,-119.5 225.9956,-109.5 222.4957,-119.5 229.4957,-119.5"/>
</g>
<!-- values&#45;&gt;functions -->
<g id="edge6" class="edge">
<title>values:f3&#45;&gt;functions:f3</title>
<path fill="none" stroke="#0000ff" d="M283.9956,-146.5C283.9956,-134.0336 283.4213,-128.6604 283.1432,-119.6298"/>
<polygon fill="#0000ff" stroke="#0000ff" points="286.641,-119.4479 282.9956,-109.5 279.6417,-119.5499 286.641,-119.4479"/>
</g>
<!-- values&#45;&gt;functions -->
<g id="edge7" class="edge">
<title>values:f4&#45;&gt;functions:f4</title>
<path fill="none" stroke="#0000ff" d="M340.9956,-146.5C340.9956,-134.0336 340.4213,-128.6604 340.1432,-119.6298"/>
<polygon fill="#0000ff" stroke="#0000ff" points="343.641,-119.4479 339.9956,-109.5 336.6417,-119.5499 343.641,-119.4479"/>
</g>
<!-- values&#45;&gt;functions -->
<g id="edge8" class="edge">
<title>values:f5&#45;&gt;functions:f5</title>
<path fill="none" stroke="#0000ff" d="M397.9956,-146.5C397.9956,-134.0336 397.4213,-128.6604 397.1432,-119.6298"/>
<polygon fill="#0000ff" stroke="#0000ff" points="400.641,-119.4479 396.9956,-109.5 393.6417,-119.5499 400.641,-119.4479"/>
</g>
<!-- results -->
<g id="node6" class="node">
<title>results</title>
<polygon fill="#add8e6" stroke="#0000ff" points="88.9956,-.5 88.9956,-36.5 430.9956,-36.5 430.9956,-.5 88.9956,-.5"/>
<text text-anchor="middle" x="115.9956" y="-14.3" font-family="Times,serif" font-size="14.00" fill="#000000">2</text>
<polyline fill="none" stroke="#0000ff" points="142.9956,-.5 142.9956,-36.5 "/>
<text text-anchor="middle" x="170.4956" y="-14.3" font-family="Times,serif" font-size="14.00" fill="#000000">4</text>
<polyline fill="none" stroke="#0000ff" points="197.9956,-.5 197.9956,-36.5 "/>
<text text-anchor="middle" x="225.4956" y="-14.3" font-family="Times,serif" font-size="14.00" fill="#000000">6</text>
<polyline fill="none" stroke="#0000ff" points="252.9956,-.5 252.9956,-36.5 "/>
<text text-anchor="middle" x="279.9956" y="-14.3" font-family="Times,serif" font-size="14.00" fill="#000000">8</text>
<polyline fill="none" stroke="#0000ff" points="306.9956,-.5 306.9956,-36.5 "/>
<text text-anchor="middle" x="337.9956" y="-14.3" font-family="Times,serif" font-size="14.00" fill="#000000">10</text>
<polyline fill="none" stroke="#0000ff" points="368.9956,-.5 368.9956,-36.5 "/>
<text text-anchor="middle" x="399.9956" y="-14.3" font-family="Times,serif" font-size="14.00" fill="#000000">12</text>
</g>
<!-- functions&#45;&gt;results -->
<g id="edge9" class="edge">
<title>functions:f0&#45;&gt;results:f0</title>
<path fill="none" stroke="#0000ff" d="M111.9956,-73.5C111.9956,-60.9656 114.2927,-55.679 115.4054,-46.6553"/>
<polygon fill="#0000ff" stroke="#0000ff" points="118.9094,-46.6863 115.9956,-36.5 111.9212,-46.28 118.9094,-46.6863"/>
</g>
<!-- functions&#45;&gt;results -->
<g id="edge10" class="edge">
<title>functions:f1&#45;&gt;results:f1</title>
<path fill="none" stroke="#0000ff" d="M168.9956,-73.5C168.9956,-61.0336 169.5699,-55.6604 169.8481,-46.6298"/>
<polygon fill="#0000ff" stroke="#0000ff" points="173.3495,-46.5499 169.9956,-36.5 166.3502,-46.4479 173.3495,-46.5499"/>
</g>
<!-- functions&#45;&gt;results -->
<g id="edge11" class="edge">
<title>functions:f2&#45;&gt;results:f2</title>
<path fill="none" stroke="#0000ff" d="M225.9956,-73.5C225.9956,-61.0336 225.4213,-55.6604 225.1432,-46.6298"/>
<polygon fill="#0000ff" stroke="#0000ff" points="228.641,-46.4479 224.9956,-36.5 221.6417,-46.5499 228.641,-46.4479"/>
</g>
<!-- functions&#45;&gt;results -->
<g id="edge12" class="edge">
<title>functions:f3&#45;&gt;results:f3</title>
<path fill="none" stroke="#0000ff" d="M282.9956,-73.5C282.9956,-60.9973 281.2728,-55.6704 280.4383,-46.6434"/>
<polygon fill="#0000ff" stroke="#0000ff" points="283.9284,-46.3379 279.9956,-36.5 276.935,-46.6431 283.9284,-46.3379"/>
</g>
<!-- functions&#45;&gt;results -->
<g id="edge13" class="edge">
<title>functions:f4&#45;&gt;results:f4</title>
<path fill="none" stroke="#0000ff" d="M339.9956,-73.5C339.9956,-61.02 338.847,-55.6641 338.2907,-46.6349"/>
<polygon fill="#0000ff" stroke="#0000ff" points="341.7853,-46.3939 337.9956,-36.5 334.7882,-46.5977 341.7853,-46.3939"/>
</g>
<!-- functions&#45;&gt;results -->
<g id="edge14" class="edge">
<title>functions:f5&#45;&gt;results:f5</title>
<path fill="none" stroke="#0000ff" d="M396.9956,-73.5C396.9956,-60.9973 398.7184,-55.6704 399.5529,-46.6434"/>
<polygon fill="#0000ff" stroke="#0000ff" points="403.0562,-46.6431 399.9956,-36.5 396.0629,-46.3379 403.0562,-46.6431"/>
</g>
</g>
</svg>
