<?xml version="1.0" encoding="UTF-8" standalone="no"?>
<!DOCTYPE svg PUBLIC "-//W3C//DTD SVG 1.1//EN"
 "http://www.w3.org/Graphics/SVG/1.1/DTD/svg11.dtd">
<!-- Generated by graphviz version 2.40.1 (20161225.0304)
 -->
<!-- Title: %3 Pages: 1 -->
<svg width="533pt" height="191pt"
 viewBox="0.00 0.00 533.00 191.00" xmlns="http://www.w3.org/2000/svg" xmlns:xlink="http://www.w3.org/1999/xlink">
<g id="graph0" class="graph" transform="scale(1 1) rotate(0) translate(4 187)">
<title>%3</title>
<polygon fill="#ffffff" stroke="transparent" points="-4,4 -4,-187 528.9956,-187 528.9956,4 -4,4"/>
<!-- Array: -->
<g id="node1" class="node">
<title>Array:</title>
<text text-anchor="middle" x="34.9956" y="-159.1" font-family="Times,serif" font-size="18.00" fill="#ff0000">Array:</text>
</g>
<!-- reduce: -->
<g id="node2" class="node">
<title>reduce:</title>
<text text-anchor="middle" x="34.9956" y="-86.1" font-family="Times,serif" font-size="18.00" fill="#ff0000">reduce:</text>
</g>
<!-- Array:&#45;&gt;reduce: -->
<g id="edge1" class="edge">
<title>Array:&#45;&gt;reduce:</title>
<path fill="none" stroke="#ffffff" d="M34.9956,-146.4551C34.9956,-138.3828 34.9956,-128.6764 34.9956,-119.6817"/>
<polygon fill="#ffffff" stroke="#ffffff" points="38.4957,-119.5903 34.9956,-109.5904 31.4957,-119.5904 38.4957,-119.5903"/>
</g>
<!-- Return: -->
<g id="node3" class="node">
<title>Return:</title>
<text text-anchor="middle" x="34.9956" y="-13.1" font-family="Times,serif" font-size="18.00" fill="#ff0000">Return:</text>
</g>
<!-- reduce:&#45;&gt;Return: -->
<g id="edge2" class="edge">
<title>reduce:&#45;&gt;Return:</title>
<path fill="none" stroke="#ffffff" d="M34.9956,-73.4551C34.9956,-65.3828 34.9956,-55.6764 34.9956,-46.6817"/>
<polygon fill="#ffffff" stroke="#ffffff" points="38.4957,-46.5903 34.9956,-36.5904 31.4957,-46.5904 38.4957,-46.5903"/>
</g>
<!-- values -->
<g id="node4" class="node">
<title>values</title>
<polygon fill="#add8e6" stroke="#0000ff" points="83.9956,-146.5 83.9956,-182.5 425.9956,-182.5 425.9956,-146.5 83.9956,-146.5"/>
<text text-anchor="middle" x="112.4956" y="-160.3" font-family="Times,serif" font-size="14.00" fill="#000000">1</text>
<polyline fill="none" stroke="#0000ff" points="140.9956,-146.5 140.9956,-182.5 "/>
<text text-anchor="middle" x="169.4956" y="-160.3" font-family="Times,serif" font-size="14.00" fill="#000000">2</text>
<polyline fill="none" stroke="#0000ff" points="197.9956,-146.5 197.9956,-182.5 "/>
<text text-anchor="middle" x="226.4956" y="-160.3" font-family="Times,serif" font-size="14.00" fill="#000000">3</text>
<polyline fill="none" stroke="#0000ff" points="254.9956,-146.5 254.9956,-182.5 "/>
<text text-anchor="middle" x="283.4956" y="-160.3" font-family="Times,serif" font-size="14.00" fill="#000000">4</text>
<polyline fill="none" stroke="#0000ff" points="311.9956,-146.5 311.9956,-182.5 "/>
<text text-anchor="middle" x="340.4956" y="-160.3" font-family="Times,serif" font-size="14.00" fill="#000000">5</text>
<polyline fill="none" stroke="#0000ff" points="368.9956,-146.5 368.9956,-182.5 "/>
<text text-anchor="middle" x="397.4956" y="-160.3" font-family="Times,serif" font-size="14.00" fill="#000000">6</text>
</g>
<!-- functions -->
<g id="node5" class="node">
<title>functions</title>
<polygon fill="none" stroke="#ffffff" points="93.9956,-73.5 93.9956,-109.5 507.9956,-109.5 507.9956,-73.5 93.9956,-73.5"/>
<text text-anchor="middle" x="112.7388" y="-87.3" font-family="Times,serif" font-size="14.00" fill="#000000">f(x,y)</text>
<polyline fill="none" stroke="#ffffff" points="131.4819,-73.5 131.4819,-109.5 "/>
<text text-anchor="middle" x="150.6274" y="-87.3" font-family="Times,serif" font-size="14.00" fill="#000000">= x+y</text>
<polyline fill="none" stroke="#ffffff" points="169.7729,-73.5 169.7729,-109.5 "/>
<text text-anchor="middle" x="174.5229" y="-87.3" font-family="Times,serif" font-size="14.00" fill="#000000"> </text>
<polyline fill="none" stroke="#ffffff" points="179.2729,-73.5 179.2729,-109.5 "/>
<text text-anchor="middle" x="197.5161" y="-87.3" font-family="Times,serif" font-size="14.00" fill="#000000">f(x,y)</text>
<polyline fill="none" stroke="#ffffff" points="215.7593,-73.5 215.7593,-109.5 "/>
<text text-anchor="middle" x="235.4048" y="-87.3" font-family="Times,serif" font-size="14.00" fill="#000000">= x+y</text>
<polyline fill="none" stroke="#ffffff" points="255.0503,-73.5 255.0503,-109.5 "/>
<text text-anchor="middle" x="259.3003" y="-87.3" font-family="Times,serif" font-size="14.00" fill="#000000"> </text>
<polyline fill="none" stroke="#ffffff" points="263.5503,-73.5 263.5503,-109.5 "/>
<text text-anchor="middle" x="282.2935" y="-87.3" font-family="Times,serif" font-size="14.00" fill="#000000">f(x,y)</text>
<polyline fill="none" stroke="#ffffff" points="301.0366,-73.5 301.0366,-109.5 "/>
<text text-anchor="middle" x="320.1821" y="-87.3" font-family="Times,serif" font-size="14.00" fill="#000000">= x+y</text>
<polyline fill="none" stroke="#ffffff" points="339.3276,-73.5 339.3276,-109.5 "/>
<text text-anchor="middle" x="343.5776" y="-87.3" font-family="Times,serif" font-size="14.00" fill="#000000"> </text>
<polyline fill="none" stroke="#ffffff" points="347.8276,-73.5 347.8276,-109.5 "/>
<text text-anchor="middle" x="366.5708" y="-87.3" font-family="Times,serif" font-size="14.00" fill="#000000">f(x,y)</text>
<polyline fill="none" stroke="#ffffff" points="385.314,-73.5 385.314,-109.5 "/>
<text text-anchor="middle" x="404.4595" y="-87.3" font-family="Times,serif" font-size="14.00" fill="#000000">= x+y</text>
<polyline fill="none" stroke="#ffffff" points="423.605,-73.5 423.605,-109.5 "/>
<text text-anchor="middle" x="428.355" y="-87.3" font-family="Times,serif" font-size="14.00" fill="#000000"> </text>
<polyline fill="none" stroke="#ffffff" points="433.105,-73.5 433.105,-109.5 "/>
<text text-anchor="middle" x="451.3481" y="-87.3" font-family="Times,serif" font-size="14.00" fill="#000000">f(x,y)</text>
<polyline fill="none" stroke="#ffffff" points="469.5913,-73.5 469.5913,-109.5 "/>
<text text-anchor="middle" x="489.2368" y="-87.3" font-family="Times,serif" font-size="14.00" fill="#000000">= x+y</text>
</g>
<!-- values&#45;&gt;functions -->
<g id="edge3" class="edge">
<title>values:v0&#45;&gt;functions:f0</title>
<path fill="none" stroke="#0000ff" d="M111.9956,-146.5C111.9956,-134.0336 112.5699,-128.6604 112.8481,-119.6298"/>
<polygon fill="#0000ff" stroke="#0000ff" points="116.3495,-119.5499 112.9956,-109.5 109.3502,-119.4479 116.3495,-119.5499"/>
</g>
<!-- values&#45;&gt;functions -->
<g id="edge4" class="edge">
<title>values:v1&#45;&gt;functions:f0</title>
<path fill="none" stroke="#0000ff" d="M168.9956,-146.5C168.9956,-120.8642 127.6382,-133.9953 116.0064,-119.2626"/>
<polygon fill="#0000ff" stroke="#0000ff" points="119.2873,-118.0244 112.9956,-109.5 112.5982,-120.0874 119.2873,-118.0244"/>
</g>
<!-- values&#45;&gt;functions -->
<g id="edge5" class="edge">
<title>values:v2&#45;&gt;functions:f2</title>
<path fill="none" stroke="#0000ff" d="M225.9956,-146.5C225.9956,-129.9054 207.865,-129.4129 200.7827,-119.1082"/>
<polygon fill="#0000ff" stroke="#0000ff" points="204.143,-118.129 197.9956,-109.5 197.4202,-120.0792 204.143,-118.129"/>
</g>
<!-- values&#45;&gt;functions -->
<g id="edge6" class="edge">
<title>values:v3&#45;&gt;functions:f4</title>
<path fill="none" stroke="#0000ff" d="M283.9956,-146.5C283.9956,-134.02 282.847,-128.6641 282.2907,-119.6349"/>
<polygon fill="#0000ff" stroke="#0000ff" points="285.7853,-119.3939 281.9956,-109.5 278.7882,-119.5977 285.7853,-119.3939"/>
</g>
<!-- values&#45;&gt;functions -->
<g id="edge7" class="edge">
<title>values:v4&#45;&gt;functions:f6</title>
<path fill="none" stroke="#0000ff" d="M340.9956,-146.5C340.9956,-130.484 357.5059,-129.2609 364.2132,-119.2545"/>
<polygon fill="#0000ff" stroke="#0000ff" points="367.6182,-120.0765 366.9956,-109.5 360.8867,-118.1563 367.6182,-120.0765"/>
</g>
<!-- values&#45;&gt;functions -->
<g id="edge8" class="edge">
<title>values:v5&#45;&gt;functions:f8</title>
<path fill="none" stroke="#0000ff" d="M397.9956,-146.5C397.9956,-122.0365 436.429,-133.2387 447.8389,-119.3635"/>
<polygon fill="#0000ff" stroke="#0000ff" points="451.2809,-120.091 450.9956,-109.5 444.614,-117.9573 451.2809,-120.091"/>
</g>
<!-- results -->
<g id="node6" class="node">
<title>results</title>
<polygon fill="none" stroke="#ffffff" points="164.9956,-.5 164.9956,-36.5 524.9956,-36.5 524.9956,-.5 164.9956,-.5"/>
<text text-anchor="middle" x="198.4956" y="-14.3" font-family="Times,serif" font-size="14.00" fill="#000000">3</text>
<polyline fill="none" stroke="#ffffff" points="231.9956,-.5 231.9956,-36.5 "/>
<text text-anchor="middle" x="265.9956" y="-14.3" font-family="Times,serif" font-size="14.00" fill="#000000">6</text>
<polyline fill="none" stroke="#ffffff" points="299.9956,-.5 299.9956,-36.5 "/>
<text text-anchor="middle" x="337.4956" y="-14.3" font-family="Times,serif" font-size="14.00" fill="#000000">10</text>
<polyline fill="none" stroke="#ffffff" points="374.9956,-.5 374.9956,-36.5 "/>
<text text-anchor="middle" x="412.4956" y="-14.3" font-family="Times,serif" font-size="14.00" fill="#000000">15</text>
<polyline fill="none" stroke="#ffffff" points="449.9956,-.5 449.9956,-36.5 "/>
<text text-anchor="middle" x="487.4956" y="-14.3" font-family="Times,serif" font-size="14.00" fill="#000000">21</text>
</g>
<!-- functions&#45;&gt;results -->
<g id="edge9" class="edge">
<title>functions:f1&#45;&gt;results:r0</title>
<path fill="none" stroke="#0000ff" d="M150.9956,-73.5C150.9956,-51.0689 184.4556,-59.0757 194.9118,-46.1565"/>
<polygon fill="#0000ff" stroke="#0000ff" points="198.2875,-47.0908 197.9956,-36.5 191.6193,-44.9613 198.2875,-47.0908"/>
</g>
<!-- functions&#45;&gt;results -->
<g id="edge10" class="edge">
<title>functions:f3&#45;&gt;results:r1</title>
<path fill="none" stroke="#0000ff" d="M234.9956,-73.5C234.9956,-56.2367 255.0688,-56.6898 262.9099,-46.3469"/>
<polygon fill="#0000ff" stroke="#0000ff" points="266.3451,-47.0891 265.9956,-36.5 259.6654,-44.9958 266.3451,-47.0891"/>
</g>
<!-- functions&#45;&gt;results -->
<g id="edge11" class="edge">
<title>functions:f5&#45;&gt;results:r2</title>
<path fill="none" stroke="#0000ff" d="M319.9956,-73.5C319.9956,-59.503 330.1651,-55.8498 334.7732,-46.5398"/>
<polygon fill="#0000ff" stroke="#0000ff" points="338.2515,-47.0201 336.9956,-36.5 331.4169,-45.5072 338.2515,-47.0201"/>
</g>
<!-- functions&#45;&gt;results -->
<g id="edge12" class="edge">
<title>functions:f7&#45;&gt;results:r3</title>
<path fill="none" stroke="#0000ff" d="M403.9956,-73.5C403.9956,-60.5426 409.2712,-55.658 411.7442,-46.4847"/>
<polygon fill="#0000ff" stroke="#0000ff" points="415.2248,-46.8577 412.9956,-36.5 408.2791,-45.9871 415.2248,-46.8577"/>
</g>
<!-- functions&#45;&gt;results -->
<g id="edge13" class="edge">
<title>functions:f9&#45;&gt;results:r4</title>
<path fill="none" stroke="#0000ff" d="M488.9956,-73.5C488.9956,-61.0336 488.4213,-55.6604 488.1432,-46.6298"/>
<polygon fill="#0000ff" stroke="#0000ff" points="491.641,-46.4479 487.9956,-36.5 484.6417,-46.5499 491.641,-46.4479"/>
</g>
<!-- results&#45;&gt;functions -->
<g id="edge14" class="edge">
<title>results:r0&#45;&gt;functions:f2</title>
<path fill="none" stroke="#0000ff" d="M197.9956,-36.5C197.9956,-48.9618 197.9956,-54.3408 197.9956,-63.3719"/>
<polygon fill="#0000ff" stroke="#0000ff" points="194.4957,-63.5 197.9956,-73.5 201.4957,-63.5 194.4957,-63.5"/>
</g>
<!-- results&#45;&gt;functions -->
<g id="edge15" class="edge">
<title>results:r1&#45;&gt;functions:f4</title>
<path fill="none" stroke="#0000ff" d="M265.9956,-36.5C265.9956,-50.357 275.5669,-54.195 279.9039,-63.5122"/>
<polygon fill="#0000ff" stroke="#0000ff" points="276.52,-64.4298 281.9956,-73.5 283.3714,-62.9949 276.52,-64.4298"/>
</g>
<!-- results&#45;&gt;functions -->
<g id="edge16" class="edge">
<title>results:r2&#45;&gt;functions:f6</title>
<path fill="none" stroke="#0000ff" d="M336.9956,-36.5C336.9956,-53.5358 356.4213,-53.4044 364.0094,-63.7343"/>
<polygon fill="#0000ff" stroke="#0000ff" points="360.7243,-64.9606 366.9956,-73.5 367.4184,-62.9136 360.7243,-64.9606"/>
</g>
<!-- results&#45;&gt;functions -->
<g id="edge17" class="edge">
<title>results:r3&#45;&gt;functions:f8</title>
<path fill="none" stroke="#0000ff" d="M412.9956,-36.5C412.9956,-55.8367 438.5663,-52.4848 447.7557,-63.6677"/>
<polygon fill="#0000ff" stroke="#0000ff" points="444.5418,-65.0977 450.9956,-73.5 451.1901,-62.9069 444.5418,-65.0977"/>
</g>
</g>
</svg>
