<?xml version="1.0" encoding="UTF-8" standalone="no"?>
<!DOCTYPE svg PUBLIC "-//W3C//DTD SVG 1.1//EN"
 "http://www.w3.org/Graphics/SVG/1.1/DTD/svg11.dtd">
<!-- Generated by graphviz version 2.40.1 (20161225.0304)
 -->
<!-- Title: %3 Pages: 1 -->
<svg width="497pt" height="191pt"
 viewBox="0.00 0.00 497.00 191.00" xmlns="http://www.w3.org/2000/svg" xmlns:xlink="http://www.w3.org/1999/xlink">
<g id="graph0" class="graph" transform="scale(1 1) rotate(0) translate(4 187)">
<title>%3</title>
<polygon fill="#ffffff" stroke="transparent" points="-4,4 -4,-187 492.9956,-187 492.9956,4 -4,4"/>
<!-- Array: -->
<g id="node1" class="node">
<title>Array:</title>
<text text-anchor="middle" x="34.9956" y="-159.1" font-family="Times,serif" font-size="18.00" fill="#ff0000">Array:</text>
</g>
<!-- reduce: -->
<g id="node2" class="node">
<title>reduce:</title>
<text text-anchor="middle" x="34.9956" y="-86.1" font-family="Times,serif" font-size="18.00" fill="#ff0000">reduce:</text>
</g>
<!-- Array:&#45;&gt;reduce: -->
<g id="edge1" class="edge">
<title>Array:&#45;&gt;reduce:</title>
<path fill="none" stroke="#ffffff" d="M34.9956,-146.4551C34.9956,-138.3828 34.9956,-128.6764 34.9956,-119.6817"/>
<polygon fill="#ffffff" stroke="#ffffff" points="38.4957,-119.5903 34.9956,-109.5904 31.4957,-119.5904 38.4957,-119.5903"/>
</g>
<!-- Return: -->
<g id="node3" class="node">
<title>Return:</title>
<text text-anchor="middle" x="34.9956" y="-13.1" font-family="Times,serif" font-size="18.00" fill="#ff0000">Return:</text>
</g>
<!-- reduce:&#45;&gt;Return: -->
<g id="edge2" class="edge">
<title>reduce:&#45;&gt;Return:</title>
<path fill="none" stroke="#ffffff" d="M34.9956,-73.4551C34.9956,-65.3828 34.9956,-55.6764 34.9956,-46.6817"/>
<polygon fill="#ffffff" stroke="#ffffff" points="38.4957,-46.5903 34.9956,-36.5904 31.4957,-46.5904 38.4957,-46.5903"/>
</g>
<!-- values -->
<g id="node4" class="node">
<title>values</title>
<polygon fill="#add8e6" stroke="#0000ff" points="83.9956,-146.5 83.9956,-182.5 425.9956,-182.5 425.9956,-146.5 83.9956,-146.5"/>
<text text-anchor="middle" x="112.4956" y="-160.3" font-family="Times,serif" font-size="14.00" fill="#000000">1</text>
<polyline fill="none" stroke="#0000ff" points="140.9956,-146.5 140.9956,-182.5 "/>
<text text-anchor="middle" x="169.4956" y="-160.3" font-family="Times,serif" font-size="14.00" fill="#000000">2</text>
<polyline fill="none" stroke="#0000ff" points="197.9956,-146.5 197.9956,-182.5 "/>
<text text-anchor="middle" x="226.4956" y="-160.3" font-family="Times,serif" font-size="14.00" fill="#000000">3</text>
<polyline fill="none" stroke="#0000ff" points="254.9956,-146.5 254.9956,-182.5 "/>
<text text-anchor="middle" x="283.4956" y="-160.3" font-family="Times,serif" font-size="14.00" fill="#000000">4</text>
<polyline fill="none" stroke="#0000ff" points="311.9956,-146.5 311.9956,-182.5 "/>
<text text-anchor="middle" x="340.4956" y="-160.3" font-family="Times,serif" font-size="14.00" fill="#000000">5</text>
<polyline fill="none" stroke="#0000ff" points="368.9956,-146.5 368.9956,-182.5 "/>
<text text-anchor="middle" x="397.4956" y="-160.3" font-family="Times,serif" font-size="14.00" fill="#000000">6</text>
</g>
<!-- functions -->
<g id="node5" class="node">
<title>functions</title>
<polygon fill="none" stroke="#ffffff" points="121.9956,-73.5 121.9956,-109.5 463.9956,-109.5 463.9956,-73.5 121.9956,-73.5"/>
<text text-anchor="middle" x="138.7388" y="-87.3" font-family="Times,serif" font-size="14.00" fill="#000000">f(x,y)</text>
<polyline fill="none" stroke="#ffffff" points="155.4819,-73.5 155.4819,-109.5 "/>
<text text-anchor="middle" x="171.3774" y="-87.3" font-family="Times,serif" font-size="14.00" fill="#000000">=x+y</text>
<polyline fill="none" stroke="#ffffff" points="187.2729,-73.5 187.2729,-109.5 "/>
<text text-anchor="middle" x="189.5229" y="-87.3" font-family="Times,serif" font-size="14.00" fill="#000000"> </text>
<polyline fill="none" stroke="#ffffff" points="191.7729,-73.5 191.7729,-109.5 "/>
<text text-anchor="middle" x="208.5161" y="-87.3" font-family="Times,serif" font-size="14.00" fill="#000000">f(x,y)</text>
<polyline fill="none" stroke="#ffffff" points="225.2593,-73.5 225.2593,-109.5 "/>
<text text-anchor="middle" x="240.6548" y="-87.3" font-family="Times,serif" font-size="14.00" fill="#000000">=x+y</text>
<polyline fill="none" stroke="#ffffff" points="256.0503,-73.5 256.0503,-109.5 "/>
<text text-anchor="middle" x="258.8003" y="-87.3" font-family="Times,serif" font-size="14.00" fill="#000000"> </text>
<polyline fill="none" stroke="#ffffff" points="261.5503,-73.5 261.5503,-109.5 "/>
<text text-anchor="middle" x="277.7935" y="-87.3" font-family="Times,serif" font-size="14.00" fill="#000000">f(x,y)</text>
<polyline fill="none" stroke="#ffffff" points="294.0366,-73.5 294.0366,-109.5 "/>
<text text-anchor="middle" x="309.9321" y="-87.3" font-family="Times,serif" font-size="14.00" fill="#000000">=x+y</text>
<polyline fill="none" stroke="#ffffff" points="325.8276,-73.5 325.8276,-109.5 "/>
<text text-anchor="middle" x="328.0776" y="-87.3" font-family="Times,serif" font-size="14.00" fill="#000000"> </text>
<polyline fill="none" stroke="#ffffff" points="330.3276,-73.5 330.3276,-109.5 "/>
<text text-anchor="middle" x="347.0708" y="-87.3" font-family="Times,serif" font-size="14.00" fill="#000000">f(x,y)</text>
<polyline fill="none" stroke="#ffffff" points="363.814,-73.5 363.814,-109.5 "/>
<text text-anchor="middle" x="379.2095" y="-87.3" font-family="Times,serif" font-size="14.00" fill="#000000">=x+y</text>
<polyline fill="none" stroke="#ffffff" points="394.605,-73.5 394.605,-109.5 "/>
<text text-anchor="middle" x="397.355" y="-87.3" font-family="Times,serif" font-size="14.00" fill="#000000"> </text>
<polyline fill="none" stroke="#ffffff" points="400.105,-73.5 400.105,-109.5 "/>
<text text-anchor="middle" x="416.8481" y="-87.3" font-family="Times,serif" font-size="14.00" fill="#000000">f(x,y)</text>
<polyline fill="none" stroke="#ffffff" points="433.5913,-73.5 433.5913,-109.5 "/>
<text text-anchor="middle" x="448.9868" y="-87.3" font-family="Times,serif" font-size="14.00" fill="#000000">=x+y</text>
</g>
<!-- values&#45;&gt;functions -->
<g id="edge3" class="edge">
<title>values:v0&#45;&gt;functions:f0</title>
<path fill="none" stroke="#0000ff" d="M111.9956,-146.5C111.9956,-130.2778 129.1409,-129.3414 136.1061,-119.3291"/>
<polygon fill="#0000ff" stroke="#0000ff" points="139.5331,-120.0812 138.9956,-109.5 132.8173,-118.1069 139.5331,-120.0812"/>
</g>
<!-- values&#45;&gt;functions -->
<g id="edge4" class="edge">
<title>values:v1&#45;&gt;functions:f0</title>
<path fill="none" stroke="#0000ff" d="M168.9956,-146.5C168.9956,-129.4642 149.5699,-129.5956 141.9818,-119.2657"/>
<polygon fill="#0000ff" stroke="#0000ff" points="145.2669,-118.0394 138.9956,-109.5 138.5728,-120.0864 145.2669,-118.0394"/>
</g>
<!-- values&#45;&gt;functions -->
<g id="edge5" class="edge">
<title>values:v2&#45;&gt;functions:f2</title>
<path fill="none" stroke="#0000ff" d="M225.9956,-146.5C225.9956,-132.503 215.8261,-128.8498 211.2181,-119.5398"/>
<polygon fill="#0000ff" stroke="#0000ff" points="214.5743,-118.5072 208.9956,-109.5 207.7397,-120.0201 214.5743,-118.5072"/>
</g>
<!-- values&#45;&gt;functions -->
<g id="edge6" class="edge">
<title>values:v3&#45;&gt;functions:f4</title>
<path fill="none" stroke="#0000ff" d="M283.9956,-146.5C283.9956,-133.8754 280.5499,-128.7037 278.8809,-119.6891"/>
<polygon fill="#0000ff" stroke="#0000ff" points="282.3482,-119.1595 277.9956,-109.5 275.3745,-119.7655 282.3482,-119.1595"/>
</g>
<!-- values&#45;&gt;functions -->
<g id="edge7" class="edge">
<title>values:v4&#45;&gt;functions:f6</title>
<path fill="none" stroke="#0000ff" d="M340.9956,-146.5C340.9956,-133.8754 344.4413,-128.7037 346.1103,-119.6891"/>
<polygon fill="#0000ff" stroke="#0000ff" points="349.6167,-119.7655 346.9956,-109.5 342.643,-119.1595 349.6167,-119.7655"/>
</g>
<!-- values&#45;&gt;functions -->
<g id="edge8" class="edge">
<title>values:v5&#45;&gt;functions:f8</title>
<path fill="none" stroke="#0000ff" d="M397.9956,-146.5C397.9956,-132.0579 409.5923,-128.8815 414.6658,-119.3681"/>
<polygon fill="#0000ff" stroke="#0000ff" points="418.1041,-120.0367 416.9956,-109.5 411.2914,-118.4282 418.1041,-120.0367"/>
</g>
<!-- results -->
<g id="node6" class="node">
<title>results</title>
<polygon fill="none" stroke="#ffffff" points="146.9956,-.5 146.9956,-36.5 488.9956,-36.5 488.9956,-.5 146.9956,-.5"/>
<text text-anchor="middle" x="178.9956" y="-14.3" font-family="Times,serif" font-size="14.00" fill="#000000">3</text>
<polyline fill="none" stroke="#ffffff" points="210.9956,-.5 210.9956,-36.5 "/>
<text text-anchor="middle" x="242.9956" y="-14.3" font-family="Times,serif" font-size="14.00" fill="#000000">6</text>
<polyline fill="none" stroke="#ffffff" points="274.9956,-.5 274.9956,-36.5 "/>
<text text-anchor="middle" x="310.4956" y="-14.3" font-family="Times,serif" font-size="14.00" fill="#000000">10</text>
<polyline fill="none" stroke="#ffffff" points="345.9956,-.5 345.9956,-36.5 "/>
<text text-anchor="middle" x="381.4956" y="-14.3" font-family="Times,serif" font-size="14.00" fill="#000000">15</text>
<polyline fill="none" stroke="#ffffff" points="416.9956,-.5 416.9956,-36.5 "/>
<text text-anchor="middle" x="452.9956" y="-14.3" font-family="Times,serif" font-size="14.00" fill="#000000">21</text>
</g>
<!-- functions&#45;&gt;results -->
<g id="edge9" class="edge">
<title>functions:f1&#45;&gt;results:r0</title>
<path fill="none" stroke="#0000ff" d="M170.9956,-73.5C170.9956,-60.6188 175.6851,-55.6354 177.8832,-46.4563"/>
<polygon fill="#0000ff" stroke="#0000ff" points="181.3635,-46.8268 178.9956,-36.5 174.4068,-46.0495 181.3635,-46.8268"/>
</g>
<!-- functions&#45;&gt;results -->
<g id="edge10" class="edge">
<title>functions:f3&#45;&gt;results:r1</title>
<path fill="none" stroke="#0000ff" d="M240.9956,-73.5C240.9956,-61.02 242.1442,-55.6641 242.7005,-46.6349"/>
<polygon fill="#0000ff" stroke="#0000ff" points="246.203,-46.5977 242.9956,-36.5 239.2059,-46.3939 246.203,-46.5977"/>
</g>
<!-- functions&#45;&gt;results -->
<g id="edge11" class="edge">
<title>functions:f5&#45;&gt;results:r2</title>
<path fill="none" stroke="#0000ff" d="M309.9956,-73.5C309.9956,-61.0382 309.9956,-55.6592 309.9956,-46.6281"/>
<polygon fill="#0000ff" stroke="#0000ff" points="313.4957,-46.5 309.9956,-36.5 306.4957,-46.5 313.4957,-46.5"/>
</g>
<!-- functions&#45;&gt;results -->
<g id="edge12" class="edge">
<title>functions:f7&#45;&gt;results:r3</title>
<path fill="none" stroke="#0000ff" d="M378.9956,-73.5C378.9956,-60.9973 380.7184,-55.6704 381.5529,-46.6434"/>
<polygon fill="#0000ff" stroke="#0000ff" points="385.0562,-46.6431 381.9956,-36.5 378.0629,-46.3379 385.0562,-46.6431"/>
</g>
<!-- functions&#45;&gt;results -->
<g id="edge13" class="edge">
<title>functions:f9&#45;&gt;results:r4</title>
<path fill="none" stroke="#0000ff" d="M448.9956,-73.5C448.9956,-60.9656 451.2927,-55.679 452.4054,-46.6553"/>
<polygon fill="#0000ff" stroke="#0000ff" points="455.9094,-46.6863 452.9956,-36.5 448.9212,-46.28 455.9094,-46.6863"/>
</g>
<!-- results&#45;&gt;functions -->
<g id="edge14" class="edge">
<title>results:r0&#45;&gt;functions:f2</title>
<path fill="none" stroke="#0000ff" d="M178.9956,-36.5C178.9956,-53.5358 198.4213,-53.4044 206.0094,-63.7343"/>
<polygon fill="#0000ff" stroke="#0000ff" points="202.7243,-64.9606 208.9956,-73.5 209.4184,-62.9136 202.7243,-64.9606"/>
</g>
<!-- results&#45;&gt;functions -->
<g id="edge15" class="edge">
<title>results:r1&#45;&gt;functions:f4</title>
<path fill="none" stroke="#0000ff" d="M242.9956,-36.5C242.9956,-55.0687 266.5475,-52.8388 275.0115,-63.9329"/>
<polygon fill="#0000ff" stroke="#0000ff" points="271.6767,-64.9958 277.9956,-73.5 278.3591,-62.9114 271.6767,-64.9958"/>
</g>
<!-- results&#45;&gt;functions -->
<g id="edge16" class="edge">
<title>results:r2&#45;&gt;functions:f6</title>
<path fill="none" stroke="#0000ff" d="M309.9956,-36.5C309.9956,-55.5772 334.8934,-52.6044 343.841,-63.7574"/>
<polygon fill="#0000ff" stroke="#0000ff" points="340.5853,-65.0645 346.9956,-73.5 347.2449,-62.9081 340.5853,-65.0645"/>
</g>
<!-- results&#45;&gt;functions -->
<g id="edge17" class="edge">
<title>results:r3&#45;&gt;functions:f8</title>
<path fill="none" stroke="#0000ff" d="M381.9956,-36.5C381.9956,-55.0687 405.5475,-52.8388 414.0115,-63.9329"/>
<polygon fill="#0000ff" stroke="#0000ff" points="410.6767,-64.9958 416.9956,-73.5 417.3591,-62.9114 410.6767,-64.9958"/>
</g>
</g>
</svg>
