<?xml version="1.0" encoding="UTF-8" standalone="no"?>
<!DOCTYPE svg PUBLIC "-//W3C//DTD SVG 1.1//EN"
 "http://www.w3.org/Graphics/SVG/1.1/DTD/svg11.dtd">
<!-- Generated by graphviz version 2.40.1 (20161225.0304)
 -->
<!-- Title: %3 Pages: 1 -->
<svg width="458pt" height="191pt"
 viewBox="0.00 0.00 458.00 191.00" xmlns="http://www.w3.org/2000/svg" xmlns:xlink="http://www.w3.org/1999/xlink">
<g id="graph0" class="graph" transform="scale(1 1) rotate(0) translate(4 187)">
<title>%3</title>
<polygon fill="#ffffff" stroke="transparent" points="-4,4 -4,-187 453.9956,-187 453.9956,4 -4,4"/>
<!-- Array: -->
<g id="node1" class="node">
<title>Array:</title>
<text text-anchor="middle" x="34.9956" y="-159.1" font-family="Times,serif" font-size="18.00" fill="#ff0000">Array:</text>
</g>
<!-- Filter: -->
<g id="node2" class="node">
<title>Filter:</title>
<text text-anchor="middle" x="34.9956" y="-86.1" font-family="Times,serif" font-size="18.00" fill="#ff0000">Filter:</text>
</g>
<!-- Array:&#45;&gt;Filter: -->
<g id="edge1" class="edge">
<title>Array:&#45;&gt;Filter:</title>
<path fill="none" stroke="#ffffff" d="M34.9956,-146.4551C34.9956,-138.3828 34.9956,-128.6764 34.9956,-119.6817"/>
<polygon fill="#ffffff" stroke="#ffffff" points="38.4957,-119.5903 34.9956,-109.5904 31.4957,-119.5904 38.4957,-119.5903"/>
</g>
<!-- Return: -->
<g id="node3" class="node">
<title>Return:</title>
<text text-anchor="middle" x="34.9956" y="-13.1" font-family="Times,serif" font-size="18.00" fill="#ff0000">Return:</text>
</g>
<!-- Filter:&#45;&gt;Return: -->
<g id="edge2" class="edge">
<title>Filter:&#45;&gt;Return:</title>
<path fill="none" stroke="#ffffff" d="M34.9956,-73.4551C34.9956,-65.3828 34.9956,-55.6764 34.9956,-46.6817"/>
<polygon fill="#ffffff" stroke="#ffffff" points="38.4957,-46.5903 34.9956,-36.5904 31.4957,-46.5904 38.4957,-46.5903"/>
</g>
<!-- values -->
<g id="node4" class="node">
<title>values</title>
<polygon fill="#add8e6" stroke="#0000ff" points="99.9956,-146.5 99.9956,-182.5 441.9956,-182.5 441.9956,-146.5 99.9956,-146.5"/>
<text text-anchor="middle" x="128.4956" y="-160.3" font-family="Times,serif" font-size="14.00" fill="#000000">1</text>
<polyline fill="none" stroke="#0000ff" points="156.9956,-146.5 156.9956,-182.5 "/>
<text text-anchor="middle" x="185.4956" y="-160.3" font-family="Times,serif" font-size="14.00" fill="#000000">2</text>
<polyline fill="none" stroke="#0000ff" points="213.9956,-146.5 213.9956,-182.5 "/>
<text text-anchor="middle" x="242.4956" y="-160.3" font-family="Times,serif" font-size="14.00" fill="#000000">3</text>
<polyline fill="none" stroke="#0000ff" points="270.9956,-146.5 270.9956,-182.5 "/>
<text text-anchor="middle" x="299.4956" y="-160.3" font-family="Times,serif" font-size="14.00" fill="#000000">4</text>
<polyline fill="none" stroke="#0000ff" points="327.9956,-146.5 327.9956,-182.5 "/>
<text text-anchor="middle" x="356.4956" y="-160.3" font-family="Times,serif" font-size="14.00" fill="#000000">5</text>
<polyline fill="none" stroke="#0000ff" points="384.9956,-146.5 384.9956,-182.5 "/>
<text text-anchor="middle" x="413.4956" y="-160.3" font-family="Times,serif" font-size="14.00" fill="#000000">6</text>
</g>
<!-- functions -->
<g id="node5" class="node">
<title>functions</title>
<polygon fill="none" stroke="#ffffff" points="107.9956,-73.5 107.9956,-109.5 449.9956,-109.5 449.9956,-73.5 107.9956,-73.5"/>
<text text-anchor="middle" x="278.5464" y="-87.3" font-family="Times,serif" font-size="14.00" fill="#000000">f(x) = x % 2 != 0</text>
</g>
<!-- values&#45;&gt;functions -->
<g id="edge3" class="edge">
<title>values:f0&#45;&gt;functions:f0</title>
<path fill="none" stroke="#0000ff" d="M127.9956,-146.5C127.9956,-133.7902 132.7771,-123.8621 140.6384,-116.1283"/>
<polygon fill="#0000ff" stroke="#0000ff" points="143.1024,-118.6368 148.6749,-109.6258 138.6993,-113.195 143.1024,-118.6368"/>
</g>
<!-- values&#45;&gt;functions -->
<g id="edge4" class="edge">
<title>values:f1&#45;&gt;functions:f0</title>
<path fill="none" stroke="#0000ff" d="M184.9956,-146.5C184.9956,-133.015 192.2914,-122.7749 202.8179,-115.0182"/>
<polygon fill="#0000ff" stroke="#0000ff" points="204.8584,-117.8687 211.43,-109.5582 201.1102,-111.9568 204.8584,-117.8687"/>
</g>
<!-- values&#45;&gt;functions -->
<g id="edge5" class="edge">
<title>values:f2&#45;&gt;functions:f0</title>
<path fill="none" stroke="#0000ff" d="M241.9956,-146.5C241.9956,-136.1426 246.5687,-126.27 252.4994,-117.8214"/>
<polygon fill="#0000ff" stroke="#0000ff" points="255.3169,-119.9008 258.7635,-109.8823 249.8215,-115.5648 255.3169,-119.9008"/>
</g>
<!-- values&#45;&gt;functions -->
<g id="edge6" class="edge">
<title>values:f3&#45;&gt;functions:f0</title>
<path fill="none" stroke="#0000ff" d="M299.9956,-146.5C299.9956,-137.143 297.3101,-127.4448 293.8598,-118.8459"/>
<polygon fill="#0000ff" stroke="#0000ff" points="297.033,-117.3683 289.7417,-109.6815 290.648,-120.2375 297.033,-117.3683"/>
</g>
<!-- values&#45;&gt;functions -->
<g id="edge7" class="edge">
<title>values:f4&#45;&gt;functions:f0</title>
<path fill="none" stroke="#0000ff" d="M356.9956,-146.5C356.9956,-133.4281 349.5882,-123.1897 339.3388,-115.2798"/>
<polygon fill="#0000ff" stroke="#0000ff" points="341.2717,-112.3618 331.0227,-109.6766 337.3602,-118.167 341.2717,-112.3618"/>
</g>
<!-- values&#45;&gt;functions -->
<g id="edge8" class="edge">
<title>values:f5&#45;&gt;functions:f0</title>
<path fill="none" stroke="#0000ff" d="M413.9956,-146.5C413.9956,-133.3517 408.4356,-123.2749 399.5722,-115.5645"/>
<polygon fill="#0000ff" stroke="#0000ff" points="401.5476,-112.6734 391.3996,-109.6287 397.434,-118.3372 401.5476,-112.6734"/>
</g>
<!-- results -->
<g id="node6" class="node">
<title>results</title>
<polygon fill="#add8e6" stroke="#0000ff" points="107.9956,-.5 107.9956,-36.5 449.9956,-36.5 449.9956,-.5 107.9956,-.5"/>
<text text-anchor="middle" x="164.9956" y="-14.3" font-family="Times,serif" font-size="14.00" fill="#000000">1</text>
<polyline fill="none" stroke="#0000ff" points="221.9956,-.5 221.9956,-36.5 "/>
<text text-anchor="middle" x="278.9956" y="-14.3" font-family="Times,serif" font-size="14.00" fill="#000000">3</text>
<polyline fill="none" stroke="#0000ff" points="335.9956,-.5 335.9956,-36.5 "/>
<text text-anchor="middle" x="392.9956" y="-14.3" font-family="Times,serif" font-size="14.00" fill="#000000">5</text>
</g>
<!-- functions&#45;&gt;results -->
<g id="edge9" class="edge">
<title>functions:f0&#45;&gt;results:f0</title>
<path fill="none" stroke="#0000ff" d="M190.0134,-73.4094C178.5168,-67.0027 169.5867,-58.3295 166.3309,-46.5888"/>
<polygon fill="#0000ff" stroke="#0000ff" points="169.7775,-45.9543 164.9956,-36.5 162.838,-46.8728 169.7775,-45.9543"/>
</g>
<!-- functions&#45;&gt;results -->
<g id="edge10" class="edge">
<title>functions:f0&#45;&gt;results:f2</title>
<path fill="none" stroke="#0000ff" d="M278.9956,-73.1667C278.9956,-65.3965 278.9956,-56.0133 278.9956,-46.775"/>
<polygon fill="#0000ff" stroke="#0000ff" points="282.4957,-46.5 278.9956,-36.5 275.4957,-46.5 282.4957,-46.5"/>
</g>
<!-- functions&#45;&gt;results -->
<g id="edge11" class="edge">
<title>functions:f0&#45;&gt;results:f4</title>
<path fill="none" stroke="#0000ff" d="M367.9778,-73.4094C379.4744,-67.0027 388.4045,-58.3295 391.6604,-46.5888"/>
<polygon fill="#0000ff" stroke="#0000ff" points="395.1532,-46.8728 392.9956,-36.5 388.2137,-45.9543 395.1532,-46.8728"/>
</g>
</g>
</svg>
