<?xml version="1.0" encoding="UTF-8" standalone="no"?>
<!DOCTYPE svg PUBLIC "-//W3C//DTD SVG 1.1//EN"
 "http://www.w3.org/Graphics/SVG/1.1/DTD/svg11.dtd">
<!-- Generated by graphviz version 2.40.1 (20161225.0304)
 -->
<!-- Title: %3 Pages: 1 -->
<svg width="458pt" height="191pt"
 viewBox="0.00 0.00 458.00 191.00" xmlns="http://www.w3.org/2000/svg" xmlns:xlink="http://www.w3.org/1999/xlink">
<g id="graph0" class="graph" transform="scale(1 1) rotate(0) translate(4 187)">
<title>%3</title>
<polygon fill="#ffffff" stroke="transparent" points="-4,4 -4,-187 453.9956,-187 453.9956,4 -4,4"/>
<!-- Array: -->
<g id="node1" class="node">
<title>Array:</title>
<text text-anchor="middle" x="34.9956" y="-159.1" font-family="Times,serif" font-size="18.00" fill="#ff0000">Array:</text>
</g>
<!-- map: -->
<g id="node2" class="node">
<title>map:</title>
<text text-anchor="middle" x="34.9956" y="-86.1" font-family="Times,serif" font-size="18.00" fill="#ff0000">map:</text>
</g>
<!-- Array:&#45;&gt;map: -->
<g id="edge1" class="edge">
<title>Array:&#45;&gt;map:</title>
<path fill="none" stroke="#ffffff" d="M34.9956,-146.4551C34.9956,-138.3828 34.9956,-128.6764 34.9956,-119.6817"/>
<polygon fill="#ffffff" stroke="#ffffff" points="38.4957,-119.5903 34.9956,-109.5904 31.4957,-119.5904 38.4957,-119.5903"/>
</g>
<!-- Return: -->
<g id="node3" class="node">
<title>Return:</title>
<text text-anchor="middle" x="34.9956" y="-13.1" font-family="Times,serif" font-size="18.00" fill="#ff0000">Return:</text>
</g>
<!-- map:&#45;&gt;Return: -->
<g id="edge2" class="edge">
<title>map:&#45;&gt;Return:</title>
<path fill="none" stroke="#ffffff" d="M34.9956,-73.4551C34.9956,-65.3828 34.9956,-55.6764 34.9956,-46.6817"/>
<polygon fill="#ffffff" stroke="#ffffff" points="38.4957,-46.5903 34.9956,-36.5904 31.4957,-46.5904 38.4957,-46.5903"/>
</g>
<!-- values -->
<g id="node4" class="node">
<title>values</title>
<polygon fill="#add8e6" stroke="#0000ff" points="95.9956,-146.5 95.9956,-182.5 437.9956,-182.5 437.9956,-146.5 95.9956,-146.5"/>
<text text-anchor="middle" x="124.4956" y="-160.3" font-family="Times,serif" font-size="14.00" fill="#000000">1</text>
<polyline fill="none" stroke="#0000ff" points="152.9956,-146.5 152.9956,-182.5 "/>
<text text-anchor="middle" x="181.4956" y="-160.3" font-family="Times,serif" font-size="14.00" fill="#000000">2</text>
<polyline fill="none" stroke="#0000ff" points="209.9956,-146.5 209.9956,-182.5 "/>
<text text-anchor="middle" x="238.4956" y="-160.3" font-family="Times,serif" font-size="14.00" fill="#000000">3</text>
<polyline fill="none" stroke="#0000ff" points="266.9956,-146.5 266.9956,-182.5 "/>
<text text-anchor="middle" x="295.4956" y="-160.3" font-family="Times,serif" font-size="14.00" fill="#000000">4</text>
<polyline fill="none" stroke="#0000ff" points="323.9956,-146.5 323.9956,-182.5 "/>
<text text-anchor="middle" x="352.4956" y="-160.3" font-family="Times,serif" font-size="14.00" fill="#000000">5</text>
<polyline fill="none" stroke="#0000ff" points="380.9956,-146.5 380.9956,-182.5 "/>
<text text-anchor="middle" x="409.4956" y="-160.3" font-family="Times,serif" font-size="14.00" fill="#000000">6</text>
</g>
<!-- functions -->
<g id="node5" class="node">
<title>functions</title>
<polygon fill="none" stroke="#ffffff" points="93.9956,-73.5 93.9956,-109.5 435.9956,-109.5 435.9956,-73.5 93.9956,-73.5"/>
<text text-anchor="middle" x="264.9365" y="-87.3" font-family="Times,serif" font-size="14.00" fill="#000000">f(x) = 2x</text>
</g>
<!-- values&#45;&gt;functions -->
<g id="edge3" class="edge">
<title>values:f0&#45;&gt;functions:f0</title>
<path fill="none" stroke="#0000ff" d="M123.9956,-146.5C123.9956,-133.4936 129.2673,-123.4607 137.772,-115.7376"/>
<polygon fill="#0000ff" stroke="#0000ff" points="140.139,-118.3368 146.0269,-109.5286 135.9313,-112.7426 140.139,-118.3368"/>
</g>
<!-- values&#45;&gt;functions -->
<g id="edge4" class="edge">
<title>values:f1&#45;&gt;functions:f0</title>
<path fill="none" stroke="#0000ff" d="M180.9956,-146.5C180.9956,-133.304 188.3412,-123.1029 198.688,-115.2794"/>
<polygon fill="#0000ff" stroke="#0000ff" points="200.6733,-118.1629 207.1133,-109.7499 196.8325,-112.3106 200.6733,-118.1629"/>
</g>
<!-- values&#45;&gt;functions -->
<g id="edge5" class="edge">
<title>values:f2&#45;&gt;functions:f0</title>
<path fill="none" stroke="#0000ff" d="M237.9956,-146.5C237.9956,-136.8136 241.412,-127.0591 245.8142,-118.5106"/>
<polygon fill="#0000ff" stroke="#0000ff" points="248.8928,-120.1782 250.863,-109.7682 242.831,-116.6775 248.8928,-120.1782"/>
</g>
<!-- values&#45;&gt;functions -->
<g id="edge6" class="edge">
<title>values:f3&#45;&gt;functions:f0</title>
<path fill="none" stroke="#0000ff" d="M295.9956,-146.5C295.9956,-136.5752 292.1174,-126.7906 287.1045,-118.2885"/>
<polygon fill="#0000ff" stroke="#0000ff" points="290.0197,-116.3516 281.5847,-109.9407 284.1807,-120.2125 290.0197,-116.3516"/>
</g>
<!-- values&#45;&gt;functions -->
<g id="edge7" class="edge">
<title>values:f4&#45;&gt;functions:f0</title>
<path fill="none" stroke="#0000ff" d="M352.9956,-146.5C352.9956,-133.1482 345.6208,-122.9176 335.1411,-115.1201"/>
<polygon fill="#0000ff" stroke="#0000ff" points="336.8962,-112.0875 326.5927,-109.62 333.1087,-117.9743 336.8962,-112.0875"/>
</g>
<!-- values&#45;&gt;functions -->
<g id="edge8" class="edge">
<title>values:f5&#45;&gt;functions:f0</title>
<path fill="none" stroke="#0000ff" d="M409.9956,-146.5C409.9956,-133.5892 404.9079,-123.5855 396.6385,-115.8526"/>
<polygon fill="#0000ff" stroke="#0000ff" points="398.6492,-112.9829 388.6004,-109.6257 394.3624,-118.5167 398.6492,-112.9829"/>
</g>
<!-- results -->
<g id="node6" class="node">
<title>results</title>
<polygon fill="#add8e6" stroke="#0000ff" points="107.9956,-.5 107.9956,-36.5 449.9956,-36.5 449.9956,-.5 107.9956,-.5"/>
<text text-anchor="middle" x="134.9956" y="-14.3" font-family="Times,serif" font-size="14.00" fill="#000000">2</text>
<polyline fill="none" stroke="#0000ff" points="161.9956,-.5 161.9956,-36.5 "/>
<text text-anchor="middle" x="189.4956" y="-14.3" font-family="Times,serif" font-size="14.00" fill="#000000">4</text>
<polyline fill="none" stroke="#0000ff" points="216.9956,-.5 216.9956,-36.5 "/>
<text text-anchor="middle" x="244.4956" y="-14.3" font-family="Times,serif" font-size="14.00" fill="#000000">6</text>
<polyline fill="none" stroke="#0000ff" points="271.9956,-.5 271.9956,-36.5 "/>
<text text-anchor="middle" x="298.9956" y="-14.3" font-family="Times,serif" font-size="14.00" fill="#000000">8</text>
<polyline fill="none" stroke="#0000ff" points="325.9956,-.5 325.9956,-36.5 "/>
<text text-anchor="middle" x="356.9956" y="-14.3" font-family="Times,serif" font-size="14.00" fill="#000000">10</text>
<polyline fill="none" stroke="#0000ff" points="387.9956,-.5 387.9956,-36.5 "/>
<text text-anchor="middle" x="418.9956" y="-14.3" font-family="Times,serif" font-size="14.00" fill="#000000">12</text>
</g>
<!-- functions&#45;&gt;results -->
<g id="edge9" class="edge">
<title>functions:f0&#45;&gt;results:f0</title>
<path fill="none" stroke="#0000ff" d="M158.237,-73.4005C147.3501,-66.929 139.1735,-58.2234 136.2085,-46.5314"/>
<polygon fill="#0000ff" stroke="#0000ff" points="139.6707,-46.0076 134.9956,-36.5 132.7213,-46.8478 139.6707,-46.0076"/>
</g>
<!-- functions&#45;&gt;results -->
<g id="edge10" class="edge">
<title>functions:f0&#45;&gt;results:f1</title>
<path fill="none" stroke="#0000ff" d="M214.7257,-73.2645C203.684,-66.6065 194.1905,-57.8532 190.5655,-46.5759"/>
<polygon fill="#0000ff" stroke="#0000ff" points="193.9935,-45.8419 188.9956,-36.5 187.0769,-46.9196 193.9935,-45.8419"/>
</g>
<!-- functions&#45;&gt;results -->
<g id="edge11" class="edge">
<title>functions:f0&#45;&gt;results:f2</title>
<path fill="none" stroke="#0000ff" d="M254.2495,-73.3185C250.4149,-65.5885 246.624,-56.1455 244.9242,-46.5252"/>
<polygon fill="#0000ff" stroke="#0000ff" points="248.4031,-46.1345 243.9956,-36.5 241.4329,-46.7802 248.4031,-46.1345"/>
</g>
<!-- functions&#45;&gt;results -->
<g id="edge12" class="edge">
<title>functions:f0&#45;&gt;results:f3</title>
<path fill="none" stroke="#0000ff" d="M283.19,-73.325C289.2529,-65.8277 295.1121,-56.566 297.6628,-46.6259"/>
<polygon fill="#0000ff" stroke="#0000ff" points="301.1606,-46.8713 298.9956,-36.5 294.2204,-45.9577 301.1606,-46.8713"/>
</g>
<!-- functions&#45;&gt;results -->
<g id="edge13" class="edge">
<title>functions:f0&#45;&gt;results:f4</title>
<path fill="none" stroke="#0000ff" d="M330.8782,-73.2397C342.5142,-66.7521 352.0483,-58.0555 355.5528,-46.4472"/>
<polygon fill="#0000ff" stroke="#0000ff" points="359.0239,-46.8989 356.9956,-36.5 352.0963,-45.894 359.0239,-46.8989"/>
</g>
<!-- functions&#45;&gt;results -->
<g id="edge14" class="edge">
<title>functions:f0&#45;&gt;results:f5</title>
<path fill="none" stroke="#0000ff" d="M398.5456,-73.4586C408.2395,-66.8487 415.2684,-58.1459 417.8796,-46.7353"/>
<polygon fill="#0000ff" stroke="#0000ff" points="421.391,-46.8205 418.9956,-36.5 414.4322,-46.0617 421.391,-46.8205"/>
</g>
</g>
</svg>
