<?xml version="1.0" encoding="UTF-8" standalone="no"?>
<!DOCTYPE svg PUBLIC "-//W3C//DTD SVG 1.1//EN"
 "http://www.w3.org/Graphics/SVG/1.1/DTD/svg11.dtd">
<!-- Generated by graphviz version 2.40.1 (20161225.0304)
 -->
<!-- Title: %3 Pages: 1 -->
<svg width="542pt" height="191pt"
 viewBox="0.00 0.00 542.00 191.00" xmlns="http://www.w3.org/2000/svg" xmlns:xlink="http://www.w3.org/1999/xlink">
<g id="graph0" class="graph" transform="scale(1 1) rotate(0) translate(4 187)">
<title>%3</title>
<polygon fill="#ffffff" stroke="transparent" points="-4,4 -4,-187 537.9956,-187 537.9956,4 -4,4"/>
<!-- Array: -->
<g id="node1" class="node">
<title>Array:</title>
<text text-anchor="middle" x="34.9956" y="-159.1" font-family="Times,serif" font-size="18.00" fill="#ff0000">Array:</text>
</g>
<!-- reduce: -->
<g id="node2" class="node">
<title>reduce:</title>
<text text-anchor="middle" x="34.9956" y="-86.1" font-family="Times,serif" font-size="18.00" fill="#ff0000">reduce:</text>
</g>
<!-- Array:&#45;&gt;reduce: -->
<g id="edge1" class="edge">
<title>Array:&#45;&gt;reduce:</title>
<path fill="none" stroke="#ffffff" d="M34.9956,-146.4551C34.9956,-138.3828 34.9956,-128.6764 34.9956,-119.6817"/>
<polygon fill="#ffffff" stroke="#ffffff" points="38.4957,-119.5903 34.9956,-109.5904 31.4957,-119.5904 38.4957,-119.5903"/>
</g>
<!-- Return: -->
<g id="node3" class="node">
<title>Return:</title>
<text text-anchor="middle" x="34.9956" y="-13.1" font-family="Times,serif" font-size="18.00" fill="#ff0000">Return:</text>
</g>
<!-- reduce:&#45;&gt;Return: -->
<g id="edge2" class="edge">
<title>reduce:&#45;&gt;Return:</title>
<path fill="none" stroke="#ffffff" d="M34.9956,-73.4551C34.9956,-65.3828 34.9956,-55.6764 34.9956,-46.6817"/>
<polygon fill="#ffffff" stroke="#ffffff" points="38.4957,-46.5903 34.9956,-36.5904 31.4957,-46.5904 38.4957,-46.5903"/>
</g>
<!-- values -->
<g id="node4" class="node">
<title>values</title>
<polygon fill="#add8e6" stroke="#0000ff" points="121.9956,-146.5 121.9956,-182.5 463.9956,-182.5 463.9956,-146.5 121.9956,-146.5"/>
<text text-anchor="middle" x="150.4956" y="-160.3" font-family="Times,serif" font-size="14.00" fill="#000000">1</text>
<polyline fill="none" stroke="#0000ff" points="178.9956,-146.5 178.9956,-182.5 "/>
<text text-anchor="middle" x="207.4956" y="-160.3" font-family="Times,serif" font-size="14.00" fill="#000000">2</text>
<polyline fill="none" stroke="#0000ff" points="235.9956,-146.5 235.9956,-182.5 "/>
<text text-anchor="middle" x="264.4956" y="-160.3" font-family="Times,serif" font-size="14.00" fill="#000000">3</text>
<polyline fill="none" stroke="#0000ff" points="292.9956,-146.5 292.9956,-182.5 "/>
<text text-anchor="middle" x="321.4956" y="-160.3" font-family="Times,serif" font-size="14.00" fill="#000000">4</text>
<polyline fill="none" stroke="#0000ff" points="349.9956,-146.5 349.9956,-182.5 "/>
<text text-anchor="middle" x="378.4956" y="-160.3" font-family="Times,serif" font-size="14.00" fill="#000000">5</text>
<polyline fill="none" stroke="#0000ff" points="406.9956,-146.5 406.9956,-182.5 "/>
<text text-anchor="middle" x="435.4956" y="-160.3" font-family="Times,serif" font-size="14.00" fill="#000000">6</text>
</g>
<!-- functions -->
<g id="node5" class="node">
<title>functions</title>
<polygon fill="none" stroke="#ffffff" points="100.9956,-73.5 100.9956,-109.5 514.9956,-109.5 514.9956,-73.5 100.9956,-73.5"/>
<text text-anchor="middle" x="117.7388" y="-87.3" font-family="Times,serif" font-size="14.00" fill="#000000">f(x,y)</text>
<polyline fill="none" stroke="#ffffff" points="134.4819,-73.5 134.4819,-109.5 "/>
<text text-anchor="middle" x="150.3774" y="-87.3" font-family="Times,serif" font-size="14.00" fill="#000000">=x+y</text>
<polyline fill="none" stroke="#ffffff" points="166.2729,-73.5 166.2729,-109.5 "/>
<text text-anchor="middle" x="169.0229" y="-87.3" font-family="Times,serif" font-size="14.00" fill="#000000"> </text>
<polyline fill="none" stroke="#ffffff" points="171.7729,-73.5 171.7729,-109.5 "/>
<text text-anchor="middle" x="188.0161" y="-87.3" font-family="Times,serif" font-size="14.00" fill="#000000">f(x,y)</text>
<polyline fill="none" stroke="#ffffff" points="204.2593,-73.5 204.2593,-109.5 "/>
<text text-anchor="middle" x="220.1548" y="-87.3" font-family="Times,serif" font-size="14.00" fill="#000000">=x+y</text>
<polyline fill="none" stroke="#ffffff" points="236.0503,-73.5 236.0503,-109.5 "/>
<text text-anchor="middle" x="238.8003" y="-87.3" font-family="Times,serif" font-size="14.00" fill="#000000"> </text>
<polyline fill="none" stroke="#ffffff" points="241.5503,-73.5 241.5503,-109.5 "/>
<text text-anchor="middle" x="257.7935" y="-87.3" font-family="Times,serif" font-size="14.00" fill="#000000">f(x,y)</text>
<polyline fill="none" stroke="#ffffff" points="274.0366,-73.5 274.0366,-109.5 "/>
<text text-anchor="middle" x="289.9321" y="-87.3" font-family="Times,serif" font-size="14.00" fill="#000000">=x+y</text>
<polyline fill="none" stroke="#ffffff" points="305.8276,-73.5 305.8276,-109.5 "/>
<text text-anchor="middle" x="308.5776" y="-87.3" font-family="Times,serif" font-size="14.00" fill="#000000"> </text>
<polyline fill="none" stroke="#ffffff" points="311.3276,-73.5 311.3276,-109.5 "/>
<text text-anchor="middle" x="327.5708" y="-87.3" font-family="Times,serif" font-size="14.00" fill="#000000">f(x,y)</text>
<polyline fill="none" stroke="#ffffff" points="343.814,-73.5 343.814,-109.5 "/>
<text text-anchor="middle" x="359.7095" y="-87.3" font-family="Times,serif" font-size="14.00" fill="#000000">=x+y</text>
<polyline fill="none" stroke="#ffffff" points="375.605,-73.5 375.605,-109.5 "/>
<text text-anchor="middle" x="378.355" y="-87.3" font-family="Times,serif" font-size="14.00" fill="#000000"> </text>
<polyline fill="none" stroke="#ffffff" points="381.105,-73.5 381.105,-109.5 "/>
<text text-anchor="middle" x="397.8481" y="-87.3" font-family="Times,serif" font-size="14.00" fill="#000000">f(x,y)</text>
<polyline fill="none" stroke="#ffffff" points="414.5913,-73.5 414.5913,-109.5 "/>
<text text-anchor="middle" x="429.9868" y="-87.3" font-family="Times,serif" font-size="14.00" fill="#000000">=x+y</text>
<polyline fill="none" stroke="#ffffff" points="445.3823,-73.5 445.3823,-109.5 "/>
<text text-anchor="middle" x="448.1323" y="-87.3" font-family="Times,serif" font-size="14.00" fill="#000000"> </text>
<polyline fill="none" stroke="#ffffff" points="450.8823,-73.5 450.8823,-109.5 "/>
<text text-anchor="middle" x="467.6255" y="-87.3" font-family="Times,serif" font-size="14.00" fill="#000000">f(x,y)</text>
<polyline fill="none" stroke="#ffffff" points="484.3687,-73.5 484.3687,-109.5 "/>
<text text-anchor="middle" x="499.7642" y="-87.3" font-family="Times,serif" font-size="14.00" fill="#000000">=x+y</text>
</g>
<!-- values&#45;&gt;functions -->
<g id="edge3" class="edge">
<title>values:v0&#45;&gt;functions:f0</title>
<path fill="none" stroke="#0000ff" d="M149.9956,-146.5C149.9956,-128.8351 128.8706,-129.8026 120.9487,-119.1249"/>
<polygon fill="#0000ff" stroke="#0000ff" points="124.275,-118.0335 117.9956,-109.5 117.5829,-120.0868 124.275,-118.0335"/>
</g>
<!-- values&#45;&gt;functions -->
<g id="edge4" class="edge">
<title>values:v1&#45;&gt;functions:f2</title>
<path fill="none" stroke="#0000ff" d="M206.9956,-146.5C206.9956,-132.0579 195.3989,-128.8815 190.3254,-119.3681"/>
<polygon fill="#0000ff" stroke="#0000ff" points="193.6998,-118.4282 187.9956,-109.5 186.8871,-120.0367 193.6998,-118.4282"/>
</g>
<!-- values&#45;&gt;functions -->
<g id="edge5" class="edge">
<title>values:v2&#45;&gt;functions:f4</title>
<path fill="none" stroke="#0000ff" d="M263.9956,-146.5C263.9956,-133.8754 260.5499,-128.7037 258.8809,-119.6891"/>
<polygon fill="#0000ff" stroke="#0000ff" points="262.3482,-119.1595 257.9956,-109.5 255.3745,-119.7655 262.3482,-119.1595"/>
</g>
<!-- values&#45;&gt;functions -->
<g id="edge6" class="edge">
<title>values:v3&#45;&gt;functions:f6</title>
<path fill="none" stroke="#0000ff" d="M321.9956,-146.5C321.9956,-133.8754 325.4413,-128.7037 327.1103,-119.6891"/>
<polygon fill="#0000ff" stroke="#0000ff" points="330.6167,-119.7655 327.9956,-109.5 323.643,-119.1595 330.6167,-119.7655"/>
</g>
<!-- values&#45;&gt;functions -->
<g id="edge7" class="edge">
<title>values:v4&#45;&gt;functions:f8</title>
<path fill="none" stroke="#0000ff" d="M378.9956,-146.5C378.9956,-132.0579 390.5923,-128.8815 395.6658,-119.3681"/>
<polygon fill="#0000ff" stroke="#0000ff" points="399.1041,-120.0367 397.9956,-109.5 392.2914,-118.4282 399.1041,-120.0367"/>
</g>
<!-- values&#45;&gt;functions -->
<g id="edge8" class="edge">
<title>values:v5&#45;&gt;functions:f10</title>
<path fill="none" stroke="#0000ff" d="M435.9956,-146.5C435.9956,-128.8351 457.1206,-129.8026 465.0425,-119.1249"/>
<polygon fill="#0000ff" stroke="#0000ff" points="468.4083,-120.0868 467.9956,-109.5 461.7162,-118.0335 468.4083,-120.0868"/>
</g>
<!-- results -->
<g id="node6" class="node">
<title>results</title>
<polygon fill="none" stroke="#ffffff" points="87.9956,-.5 87.9956,-36.5 533.9956,-36.5 533.9956,-.5 87.9956,-.5"/>
<text text-anchor="middle" x="117.9956" y="-14.3" font-family="Times,serif" font-size="14.00" fill="#000000">0</text>
<polyline fill="none" stroke="#ffffff" points="147.9956,-.5 147.9956,-36.5 "/>
<text text-anchor="middle" x="178.4956" y="-14.3" font-family="Times,serif" font-size="14.00" fill="#000000">1</text>
<polyline fill="none" stroke="#ffffff" points="208.9956,-.5 208.9956,-36.5 "/>
<text text-anchor="middle" x="239.4956" y="-14.3" font-family="Times,serif" font-size="14.00" fill="#000000">3</text>
<polyline fill="none" stroke="#ffffff" points="269.9956,-.5 269.9956,-36.5 "/>
<text text-anchor="middle" x="299.9956" y="-14.3" font-family="Times,serif" font-size="14.00" fill="#000000">6</text>
<polyline fill="none" stroke="#ffffff" points="329.9956,-.5 329.9956,-36.5 "/>
<text text-anchor="middle" x="363.9956" y="-14.3" font-family="Times,serif" font-size="14.00" fill="#000000">10</text>
<polyline fill="none" stroke="#ffffff" points="397.9956,-.5 397.9956,-36.5 "/>
<text text-anchor="middle" x="431.9956" y="-14.3" font-family="Times,serif" font-size="14.00" fill="#000000">15</text>
<polyline fill="none" stroke="#ffffff" points="465.9956,-.5 465.9956,-36.5 "/>
<text text-anchor="middle" x="499.9956" y="-14.3" font-family="Times,serif" font-size="14.00" fill="#000000">21</text>
</g>
<!-- functions&#45;&gt;results -->
<g id="edge9" class="edge">
<title>functions:f1&#45;&gt;results:r0</title>
<path fill="none" stroke="#0000ff" d="M149.9956,-73.5C149.9956,-56.9054 168.1262,-56.4129 175.2085,-46.1082"/>
<polygon fill="#0000ff" stroke="#0000ff" points="178.571,-47.0792 177.9956,-36.5 171.8482,-45.129 178.571,-47.0792"/>
</g>
<!-- functions&#45;&gt;results -->
<g id="edge10" class="edge">
<title>functions:f3&#45;&gt;results:r1</title>
<path fill="none" stroke="#0000ff" d="M219.9956,-73.5C219.9956,-59.0579 231.5923,-55.8815 236.6658,-46.3681"/>
<polygon fill="#0000ff" stroke="#0000ff" points="240.1041,-47.0367 238.9956,-36.5 233.2914,-45.4282 240.1041,-47.0367"/>
</g>
<!-- functions&#45;&gt;results -->
<g id="edge11" class="edge">
<title>functions:f5&#45;&gt;results:r2</title>
<path fill="none" stroke="#0000ff" d="M289.9956,-73.5C289.9956,-60.458 295.8574,-55.6831 298.6051,-46.5163"/>
<polygon fill="#0000ff" stroke="#0000ff" points="302.0873,-46.8863 299.9956,-36.5 295.1538,-45.9237 302.0873,-46.8863"/>
</g>
<!-- functions&#45;&gt;results -->
<g id="edge12" class="edge">
<title>functions:f7&#45;&gt;results:r3</title>
<path fill="none" stroke="#0000ff" d="M359.9956,-73.5C359.9956,-60.9656 362.2927,-55.679 363.4054,-46.6553"/>
<polygon fill="#0000ff" stroke="#0000ff" points="366.9094,-46.6863 363.9956,-36.5 359.9212,-46.28 366.9094,-46.6863"/>
</g>
<!-- functions&#45;&gt;results -->
<g id="edge13" class="edge">
<title>functions:f9&#45;&gt;results:r4</title>
<path fill="none" stroke="#0000ff" d="M429.9956,-73.5C429.9956,-61.02 431.1442,-55.6641 431.7005,-46.6349"/>
<polygon fill="#0000ff" stroke="#0000ff" points="435.203,-46.5977 431.9956,-36.5 428.2059,-46.3939 435.203,-46.5977"/>
</g>
<!-- functions&#45;&gt;results -->
<g id="edge14" class="edge">
<title>functions:f11&#45;&gt;results:r5</title>
<path fill="none" stroke="#0000ff" d="M499.9956,-73.5C499.9956,-61.0382 499.9956,-55.6592 499.9956,-46.6281"/>
<polygon fill="#0000ff" stroke="#0000ff" points="503.4957,-46.5 499.9956,-36.5 496.4957,-46.5 503.4957,-46.5"/>
</g>
<!-- results&#45;&gt;functions -->
<g id="edge15" class="edge">
<title>results:r6&#45;&gt;functions:f0</title>
<path fill="none" stroke="#0000ff" d="M117.9956,-36.5C117.9956,-48.9618 117.9956,-54.3408 117.9956,-63.3719"/>
<polygon fill="#0000ff" stroke="#0000ff" points="114.4957,-63.5 117.9956,-73.5 121.4957,-63.5 114.4957,-63.5"/>
</g>
<!-- results&#45;&gt;functions -->
<g id="edge16" class="edge">
<title>results:r0&#45;&gt;functions:f2</title>
<path fill="none" stroke="#0000ff" d="M177.9956,-36.5C177.9956,-49.542 183.8574,-54.3169 186.6051,-63.4837"/>
<polygon fill="#0000ff" stroke="#0000ff" points="183.1538,-64.0763 187.9956,-73.5 190.0873,-63.1137 183.1538,-64.0763"/>
</g>
<!-- results&#45;&gt;functions -->
<g id="edge17" class="edge">
<title>results:r1&#45;&gt;functions:f4</title>
<path fill="none" stroke="#0000ff" d="M238.9956,-36.5C238.9956,-50.9421 250.5923,-54.1185 255.6658,-63.6319"/>
<polygon fill="#0000ff" stroke="#0000ff" points="252.2914,-64.5718 257.9956,-73.5 259.1041,-62.9633 252.2914,-64.5718"/>
</g>
<!-- results&#45;&gt;functions -->
<g id="edge18" class="edge">
<title>results:r2&#45;&gt;functions:f6</title>
<path fill="none" stroke="#0000ff" d="M299.9956,-36.5C299.9956,-53.0946 318.1262,-53.5871 325.2085,-63.8918"/>
<polygon fill="#0000ff" stroke="#0000ff" points="321.8482,-64.871 327.9956,-73.5 328.571,-62.9208 321.8482,-64.871"/>
</g>
<!-- results&#45;&gt;functions -->
<g id="edge19" class="edge">
<title>results:r3&#45;&gt;functions:f8</title>
<path fill="none" stroke="#0000ff" d="M363.9956,-36.5C363.9956,-54.6456 386.4409,-52.9871 394.8579,-63.7061"/>
<polygon fill="#0000ff" stroke="#0000ff" points="391.6114,-65.0447 397.9956,-73.5 398.2777,-62.9089 391.6114,-65.0447"/>
</g>
<!-- results&#45;&gt;functions -->
<g id="edge20" class="edge">
<title>results:r4&#45;&gt;functions:f10</title>
<path fill="none" stroke="#0000ff" d="M431.9956,-36.5C431.9956,-55.3211 456.2205,-52.7224 464.9263,-63.8458"/>
<polygon fill="#0000ff" stroke="#0000ff" points="461.6302,-65.0305 467.9956,-73.5 468.3012,-62.9096 461.6302,-65.0305"/>
</g>
</g>
</svg>
