<?xml version="1.0" encoding="UTF-8" standalone="no"?>
<!DOCTYPE svg PUBLIC "-//W3C//DTD SVG 1.1//EN"
 "http://www.w3.org/Graphics/SVG/1.1/DTD/svg11.dtd">
<!-- Generated by graphviz version 2.40.1 (20161225.0304)
 -->
<!-- Title: %3 Pages: 1 -->
<svg width="466pt" height="191pt"
 viewBox="0.00 0.00 466.00 191.00" xmlns="http://www.w3.org/2000/svg" xmlns:xlink="http://www.w3.org/1999/xlink">
<g id="graph0" class="graph" transform="scale(1 1) rotate(0) translate(4 187)">
<title>%3</title>
<polygon fill="#ffffff" stroke="transparent" points="-4,4 -4,-187 461.9956,-187 461.9956,4 -4,4"/>
<!-- Array: -->
<g id="node1" class="node">
<title>Array:</title>
<text text-anchor="middle" x="34.9956" y="-159.1" font-family="Times,serif" font-size="18.00" fill="#ff0000">Array:</text>
</g>
<!-- Filter: -->
<g id="node2" class="node">
<title>Filter:</title>
<text text-anchor="middle" x="34.9956" y="-86.1" font-family="Times,serif" font-size="18.00" fill="#ff0000">Filter:</text>
</g>
<!-- Array:&#45;&gt;Filter: -->
<g id="edge1" class="edge">
<title>Array:&#45;&gt;Filter:</title>
<path fill="none" stroke="#ffffff" d="M34.9956,-146.4551C34.9956,-138.3828 34.9956,-128.6764 34.9956,-119.6817"/>
<polygon fill="#ffffff" stroke="#ffffff" points="38.4957,-119.5903 34.9956,-109.5904 31.4957,-119.5904 38.4957,-119.5903"/>
</g>
<!-- Return: -->
<g id="node3" class="node">
<title>Return:</title>
<text text-anchor="middle" x="34.9956" y="-13.1" font-family="Times,serif" font-size="18.00" fill="#ff0000">Return:</text>
</g>
<!-- Filter:&#45;&gt;Return: -->
<g id="edge2" class="edge">
<title>Filter:&#45;&gt;Return:</title>
<path fill="none" stroke="#ffffff" d="M34.9956,-73.4551C34.9956,-65.3828 34.9956,-55.6764 34.9956,-46.6817"/>
<polygon fill="#ffffff" stroke="#ffffff" points="38.4957,-46.5903 34.9956,-36.5904 31.4957,-46.5904 38.4957,-46.5903"/>
</g>
<!-- values -->
<g id="node4" class="node">
<title>values</title>
<polygon fill="#add8e6" stroke="#0000ff" points="115.9956,-146.5 115.9956,-182.5 457.9956,-182.5 457.9956,-146.5 115.9956,-146.5"/>
<text text-anchor="middle" x="144.4956" y="-160.3" font-family="Times,serif" font-size="14.00" fill="#000000">1</text>
<polyline fill="none" stroke="#0000ff" points="172.9956,-146.5 172.9956,-182.5 "/>
<text text-anchor="middle" x="201.4956" y="-160.3" font-family="Times,serif" font-size="14.00" fill="#000000">2</text>
<polyline fill="none" stroke="#0000ff" points="229.9956,-146.5 229.9956,-182.5 "/>
<text text-anchor="middle" x="258.4956" y="-160.3" font-family="Times,serif" font-size="14.00" fill="#000000">3</text>
<polyline fill="none" stroke="#0000ff" points="286.9956,-146.5 286.9956,-182.5 "/>
<text text-anchor="middle" x="315.4956" y="-160.3" font-family="Times,serif" font-size="14.00" fill="#000000">4</text>
<polyline fill="none" stroke="#0000ff" points="343.9956,-146.5 343.9956,-182.5 "/>
<text text-anchor="middle" x="372.4956" y="-160.3" font-family="Times,serif" font-size="14.00" fill="#000000">5</text>
<polyline fill="none" stroke="#0000ff" points="400.9956,-146.5 400.9956,-182.5 "/>
<text text-anchor="middle" x="429.4956" y="-160.3" font-family="Times,serif" font-size="14.00" fill="#000000">6</text>
</g>
<!-- functions -->
<g id="node5" class="node">
<title>functions</title>
<polygon fill="none" stroke="#ffffff" points="115.9956,-73.5 115.9956,-109.5 457.9956,-109.5 457.9956,-73.5 115.9956,-73.5"/>
<text text-anchor="middle" x="144.8818" y="-87.3" font-family="Times,serif" font-size="14.00" fill="#000000">isOdd(x)</text>
<polyline fill="none" stroke="#ffffff" points="173.7681,-73.5 173.7681,-109.5 "/>
<text text-anchor="middle" x="202.1543" y="-87.3" font-family="Times,serif" font-size="14.00" fill="#000000">isOdd(x)</text>
<polyline fill="none" stroke="#ffffff" points="230.5405,-73.5 230.5405,-109.5 "/>
<text text-anchor="middle" x="258.9268" y="-87.3" font-family="Times,serif" font-size="14.00" fill="#000000">isOdd(x)</text>
<polyline fill="none" stroke="#ffffff" points="287.313,-73.5 287.313,-109.5 "/>
<text text-anchor="middle" x="315.6992" y="-87.3" font-family="Times,serif" font-size="14.00" fill="#000000">isOdd(x)</text>
<polyline fill="none" stroke="#ffffff" points="344.0854,-73.5 344.0854,-109.5 "/>
<text text-anchor="middle" x="372.9717" y="-87.3" font-family="Times,serif" font-size="14.00" fill="#000000">isOdd(x)</text>
<polyline fill="none" stroke="#ffffff" points="401.8579,-73.5 401.8579,-109.5 "/>
<text text-anchor="middle" x="430.2441" y="-87.3" font-family="Times,serif" font-size="14.00" fill="#000000">isOdd(x)</text>
</g>
<!-- values&#45;&gt;functions -->
<g id="edge3" class="edge">
<title>values:f0&#45;&gt;functions:f0</title>
<path fill="none" stroke="#0000ff" d="M143.9956,-146.5C143.9956,-134.0336 144.5699,-128.6604 144.8481,-119.6298"/>
<polygon fill="#0000ff" stroke="#0000ff" points="148.3495,-119.5499 144.9956,-109.5 141.3502,-119.4479 148.3495,-119.5499"/>
</g>
<!-- values&#45;&gt;functions -->
<g id="edge4" class="edge">
<title>values:f1&#45;&gt;functions:f1</title>
<path fill="none" stroke="#0000ff" d="M200.9956,-146.5C200.9956,-134.0336 201.5699,-128.6604 201.8481,-119.6298"/>
<polygon fill="#0000ff" stroke="#0000ff" points="205.3495,-119.5499 201.9956,-109.5 198.3502,-119.4479 205.3495,-119.5499"/>
</g>
<!-- values&#45;&gt;functions -->
<g id="edge5" class="edge">
<title>values:f2&#45;&gt;functions:f2</title>
<path fill="none" stroke="#0000ff" d="M257.9956,-146.5C257.9956,-134.0336 258.5699,-128.6604 258.8481,-119.6298"/>
<polygon fill="#0000ff" stroke="#0000ff" points="262.3495,-119.5499 258.9956,-109.5 255.3502,-119.4479 262.3495,-119.5499"/>
</g>
<!-- values&#45;&gt;functions -->
<g id="edge6" class="edge">
<title>values:f3&#45;&gt;functions:f3</title>
<path fill="none" stroke="#0000ff" d="M315.9956,-146.5C315.9956,-134.0382 315.9956,-128.6592 315.9956,-119.6281"/>
<polygon fill="#0000ff" stroke="#0000ff" points="319.4957,-119.5 315.9956,-109.5 312.4957,-119.5 319.4957,-119.5"/>
</g>
<!-- values&#45;&gt;functions -->
<g id="edge7" class="edge">
<title>values:f4&#45;&gt;functions:f4</title>
<path fill="none" stroke="#0000ff" d="M372.9956,-146.5C372.9956,-134.0382 372.9956,-128.6592 372.9956,-119.6281"/>
<polygon fill="#0000ff" stroke="#0000ff" points="376.4957,-119.5 372.9956,-109.5 369.4957,-119.5 376.4957,-119.5"/>
</g>
<!-- values&#45;&gt;functions -->
<g id="edge8" class="edge">
<title>values:f5&#45;&gt;functions:f5</title>
<path fill="none" stroke="#0000ff" d="M429.9956,-146.5C429.9956,-134.0382 429.9956,-128.6592 429.9956,-119.6281"/>
<polygon fill="#0000ff" stroke="#0000ff" points="433.4957,-119.5 429.9956,-109.5 426.4957,-119.5 433.4957,-119.5"/>
</g>
<!-- results -->
<g id="node6" class="node">
<title>results</title>
<polygon fill="#add8e6" stroke="#0000ff" points="87.9956,-.5 87.9956,-36.5 429.9956,-36.5 429.9956,-.5 87.9956,-.5"/>
<text text-anchor="middle" x="144.9956" y="-14.3" font-family="Times,serif" font-size="14.00" fill="#000000">1</text>
<polyline fill="none" stroke="#0000ff" points="201.9956,-.5 201.9956,-36.5 "/>
<text text-anchor="middle" x="258.9956" y="-14.3" font-family="Times,serif" font-size="14.00" fill="#000000">3</text>
<polyline fill="none" stroke="#0000ff" points="315.9956,-.5 315.9956,-36.5 "/>
<text text-anchor="middle" x="372.9956" y="-14.3" font-family="Times,serif" font-size="14.00" fill="#000000">5</text>
</g>
<!-- functions&#45;&gt;results -->
<g id="edge9" class="edge">
<title>functions:f0&#45;&gt;results:f0</title>
<path fill="none" stroke="#0000ff" d="M144.9956,-73.5C144.9956,-61.0382 144.9956,-55.6592 144.9956,-46.6281"/>
<polygon fill="#0000ff" stroke="#0000ff" points="148.4957,-46.5 144.9956,-36.5 141.4957,-46.5 148.4957,-46.5"/>
</g>
<!-- functions&#45;&gt;results -->
<g id="edge10" class="edge">
<title>functions:f2&#45;&gt;results:f2</title>
<path fill="none" stroke="#0000ff" d="M258.9956,-73.5C258.9956,-61.0382 258.9956,-55.6592 258.9956,-46.6281"/>
<polygon fill="#0000ff" stroke="#0000ff" points="262.4957,-46.5 258.9956,-36.5 255.4957,-46.5 262.4957,-46.5"/>
</g>
<!-- functions&#45;&gt;results -->
<g id="edge11" class="edge">
<title>functions:f4&#45;&gt;results:f4</title>
<path fill="none" stroke="#0000ff" d="M372.9956,-73.5C372.9956,-61.0382 372.9956,-55.6592 372.9956,-46.6281"/>
<polygon fill="#0000ff" stroke="#0000ff" points="376.4957,-46.5 372.9956,-36.5 369.4957,-46.5 376.4957,-46.5"/>
</g>
</g>
</svg>
