<?xml version="1.0" encoding="UTF-8" standalone="no"?>
<!DOCTYPE svg PUBLIC "-//W3C//DTD SVG 1.1//EN"
 "http://www.w3.org/Graphics/SVG/1.1/DTD/svg11.dtd">
<!-- Generated by graphviz version 2.40.1 (20161225.0304)
 -->
<!-- Title: hierarchy Pages: 1 -->
<svg width="856pt" height="332pt"
 viewBox="0.00 0.00 856.32 332.00" xmlns="http://www.w3.org/2000/svg" xmlns:xlink="http://www.w3.org/1999/xlink">
<g id="graph0" class="graph" transform="scale(1 1) rotate(0) translate(4 328)">
<title>hierarchy</title>
<polygon fill="#ffffff" stroke="transparent" points="-4,4 -4,-328 852.3249,-328 852.3249,4 -4,4"/>
<!-- Lorem ispum -->
<g id="node1" class="node">
<title>Lorem ispum</title>
<ellipse fill="none" stroke="#000000" cx="558" cy="-90" rx="72" ry="18"/>
<text text-anchor="middle" x="558" y="-85.8" font-family="Courier,monospace" font-size="14.00" fill="#000000">Lorem ispum</text>
</g>
<!-- Ispum dolor lorem -->
<g id="node2" class="node">
<title>Ispum dolor lorem</title>
<ellipse fill="none" stroke="#000000" cx="748" cy="-90" rx="100.15" ry="18"/>
<text text-anchor="middle" x="748" y="-85.8" font-family="Courier,monospace" font-size="14.00" fill="#000000">Ispum dolor lorem</text>
</g>
<!-- UTF&#45;8 -->
<g id="node3" class="node">
<title>UTF&#45;8</title>
<ellipse fill="none" stroke="#000000" cx="234" cy="-18" rx="72" ry="18"/>
<text text-anchor="middle" x="234" y="-13.8" font-family="Courier,monospace" font-size="14.00" fill="#000000">UTF&#45;8</text>
</g>
<!-- Document -->
<g id="node4" class="node">
<title>Document</title>
<ellipse fill="none" stroke="#000000" cx="396" cy="-90" rx="72" ry="18"/>
<text text-anchor="middle" x="396" y="-85.8" font-family="Courier,monospace" font-size="14.00" fill="#000000">Document</text>
</g>
<!-- en -->
<g id="node5" class="node">
<title>en</title>
<ellipse fill="none" stroke="#000000" cx="72" cy="-162" rx="72" ry="18"/>
<text text-anchor="middle" x="72" y="-157.8" font-family="Courier,monospace" font-size="14.00" fill="#000000">en</text>
</g>
<!-- lang -->
<g id="node6" class="node">
<title>lang</title>
<polygon fill="none" stroke="#000000" points="225,-234 189,-252 117,-252 81,-234 117,-216 189,-216 225,-234"/>
<text text-anchor="middle" x="153" y="-229.8" font-family="Courier,monospace" font-size="14.00" fill="#000000">lang</text>
</g>
<!-- lang&#45;&#45;en -->
<g id="edge4" class="edge">
<title>lang&#45;&#45;en</title>
<path fill="none" stroke="#000000" d="M132.5603,-215.8314C120.0001,-204.6667 103.9961,-190.441 91.5949,-179.4177"/>
</g>
<!-- charset -->
<g id="node7" class="node">
<title>charset</title>
<polygon fill="none" stroke="#000000" points="306,-90 270,-108 198,-108 162,-90 198,-72 270,-72 306,-90"/>
<text text-anchor="middle" x="234" y="-85.8" font-family="Courier,monospace" font-size="14.00" fill="#000000">charset</text>
</g>
<!-- charset&#45;&#45;UTF&#45;8 -->
<g id="edge9" class="edge">
<title>charset&#45;&#45;UTF&#45;8</title>
<path fill="none" stroke="#000000" d="M234,-71.8314C234,-61 234,-47.2876 234,-36.4133"/>
</g>
<!-- html -->
<g id="node8" class="node">
<title>html</title>
<polygon fill="none" stroke="#000000" points="428,-324 284,-324 284,-288 428,-288 428,-324"/>
<text text-anchor="middle" x="356" y="-301.8" font-family="Courier,monospace" font-size="14.00" fill="#000000">html</text>
</g>
<!-- html&#45;&#45;lang -->
<g id="edge1" class="edge">
<title>html&#45;&#45;lang</title>
<path fill="none" stroke="#000000" d="M305.0366,-287.9243C271.212,-275.9274 227.3348,-260.365 195.4164,-249.0442"/>
</g>
<!-- head -->
<g id="node9" class="node">
<title>head</title>
<polygon fill="none" stroke="#000000" points="428,-252 284,-252 284,-216 428,-216 428,-252"/>
<text text-anchor="middle" x="356" y="-229.8" font-family="Courier,monospace" font-size="14.00" fill="#000000">head</text>
</g>
<!-- html&#45;&#45;head -->
<g id="edge2" class="edge">
<title>html&#45;&#45;head</title>
<path fill="none" stroke="#000000" d="M356,-287.8314C356,-277 356,-263.2876 356,-252.4133"/>
</g>
<!-- body -->
<g id="node10" class="node">
<title>body</title>
<polygon fill="none" stroke="#000000" points="630,-252 486,-252 486,-216 630,-216 630,-252"/>
<text text-anchor="middle" x="558" y="-229.8" font-family="Courier,monospace" font-size="14.00" fill="#000000">body</text>
</g>
<!-- html&#45;&#45;body -->
<g id="edge3" class="edge">
<title>html&#45;&#45;body</title>
<path fill="none" stroke="#000000" d="M406.7124,-287.9243C437.4486,-276.9688 476.5267,-263.04 507.2667,-252.0831"/>
</g>
<!-- meta -->
<g id="node11" class="node">
<title>meta</title>
<polygon fill="none" stroke="#000000" points="306,-180 162,-180 162,-144 306,-144 306,-180"/>
<text text-anchor="middle" x="234" y="-157.8" font-family="Courier,monospace" font-size="14.00" fill="#000000">meta</text>
</g>
<!-- head&#45;&#45;meta -->
<g id="edge5" class="edge">
<title>head&#45;&#45;meta</title>
<path fill="none" stroke="#000000" d="M325.2142,-215.8314C306.72,-204.9167 283.2684,-191.0764 264.7759,-180.1628"/>
</g>
<!-- title -->
<g id="node12" class="node">
<title>title</title>
<polygon fill="none" stroke="#000000" points="468,-180 324,-180 324,-144 468,-144 468,-180"/>
<text text-anchor="middle" x="396" y="-157.8" font-family="Courier,monospace" font-size="14.00" fill="#000000">title</text>
</g>
<!-- head&#45;&#45;title -->
<g id="edge6" class="edge">
<title>head&#45;&#45;title</title>
<path fill="none" stroke="#000000" d="M366.0937,-215.8314C372.1111,-205 379.7291,-191.2876 385.7704,-180.4133"/>
</g>
<!-- h1 -->
<g id="node13" class="node">
<title>h1</title>
<polygon fill="none" stroke="#000000" points="630,-180 486,-180 486,-144 630,-144 630,-180"/>
<text text-anchor="middle" x="558" y="-157.8" font-family="Courier,monospace" font-size="14.00" fill="#000000">h1</text>
</g>
<!-- body&#45;&#45;h1 -->
<g id="edge10" class="edge">
<title>body&#45;&#45;h1</title>
<path fill="none" stroke="#000000" d="M558,-215.8314C558,-205 558,-191.2876 558,-180.4133"/>
</g>
<!-- p -->
<g id="node14" class="node">
<title>p</title>
<polygon fill="none" stroke="#000000" points="806,-180 662,-180 662,-144 806,-144 806,-180"/>
<text text-anchor="middle" x="734" y="-157.8" font-family="Courier,monospace" font-size="14.00" fill="#000000">p</text>
</g>
<!-- body&#45;&#45;p -->
<g id="edge11" class="edge">
<title>body&#45;&#45;p</title>
<path fill="none" stroke="#000000" d="M602.4122,-215.8314C629.1943,-204.875 663.1826,-190.9708 689.9071,-180.038"/>
</g>
<!-- meta&#45;&#45;charset -->
<g id="edge8" class="edge">
<title>meta&#45;&#45;charset</title>
<path fill="none" stroke="#000000" d="M234,-143.8314C234,-133 234,-119.2876 234,-108.4133"/>
</g>
<!-- title&#45;&#45;Document -->
<g id="edge7" class="edge">
<title>title&#45;&#45;Document</title>
<path fill="none" stroke="#000000" d="M396,-143.8314C396,-133 396,-119.2876 396,-108.4133"/>
</g>
<!-- h1&#45;&#45;Lorem ispum -->
<g id="edge12" class="edge">
<title>h1&#45;&#45;Lorem ispum</title>
<path fill="none" stroke="#000000" d="M558,-143.8314C558,-133 558,-119.2876 558,-108.4133"/>
</g>
<!-- p&#45;&#45;Ispum dolor lorem -->
<g id="edge13" class="edge">
<title>p&#45;&#45;Ispum dolor lorem</title>
<path fill="none" stroke="#000000" d="M737.5328,-143.8314C739.6389,-133 742.3052,-119.2876 744.4196,-108.4133"/>
</g>
</g>
</svg>
