<?xml version="1.0" encoding="UTF-8" standalone="no"?>
<!DOCTYPE svg PUBLIC "-//W3C//DTD SVG 1.1//EN"
 "http://www.w3.org/Graphics/SVG/1.1/DTD/svg11.dtd">
<!-- Generated by graphviz version 2.40.1 (20161225.0304)
 -->
<!-- Title: hierarchy Pages: 1 -->
<svg width="950pt" height="368pt"
 viewBox="0.00 0.00 950.47 368.00" xmlns="http://www.w3.org/2000/svg" xmlns:xlink="http://www.w3.org/1999/xlink">
<g id="graph0" class="graph" transform="scale(1 1) rotate(0) translate(4 364)">
<title>hierarchy</title>
<polygon fill="#ffffff" stroke="transparent" points="-4,4 -4,-364 946.4673,-364 946.4673,4 -4,4"/>
<!-- noderoot -->
<g id="node1" class="node">
<title>noderoot</title>
<polygon fill="none" stroke="#000000" points="180,-252 0,-252 0,-216 180,-216 180,-252"/>
<text text-anchor="middle" x="90" y="-229.8" font-family="Courier,monospace" font-size="14.00" fill="#000000">Node</text>
</g>
<!-- nodepoint -->
<g id="node2" class="node">
<title>nodepoint</title>
<ellipse fill="#000000" stroke="#000000" cx="216.36" cy="-234" rx=".36" ry=".36"/>
</g>
<!-- noderoot&#45;&gt;nodepoint -->
<g id="edge1" class="edge">
<title>noderoot&#45;&gt;nodepoint</title>
<path fill="none" stroke="#000000" d="M180.1503,-234C198.6542,-234 213.3584,-234 215.9528,-234"/>
</g>
<!-- Document -->
<g id="node5" class="node">
<title>Document</title>
<polygon fill="none" stroke="#000000" points="432.72,-360 252.72,-360 252.72,-324 432.72,-324 432.72,-360"/>
<text text-anchor="middle" x="342.72" y="-337.8" font-family="Courier,monospace" font-size="14.00" fill="#000000">Document</text>
</g>
<!-- nodepoint&#45;&gt;Document -->
<g id="edge2" class="edge">
<title>nodepoint&#45;&gt;Document</title>
<path fill="none" stroke="#000000" d="M216.4673,-234.6897C216.4673,-243.8877 216.4673,-342 216.4673,-342 216.4673,-342 232.2456,-342 252.6463,-342"/>
</g>
<!-- Attr -->
<g id="node6" class="node">
<title>Attr</title>
<polygon fill="none" stroke="#000000" points="432.72,-306 252.72,-306 252.72,-270 432.72,-270 432.72,-306"/>
<text text-anchor="middle" x="342.72" y="-283.8" font-family="Courier,monospace" font-size="14.00" fill="#000000">Attr</text>
</g>
<!-- nodepoint&#45;&gt;Attr -->
<g id="edge3" class="edge">
<title>nodepoint&#45;&gt;Attr</title>
<path fill="none" stroke="#000000" d="M217.4673,-234.1549C217.4673,-237.3223 217.4673,-288 217.4673,-288 217.4673,-288 232.7766,-288 252.6905,-288"/>
</g>
<!-- CharacterData -->
<g id="node7" class="node">
<title>CharacterData</title>
<polygon fill="none" stroke="#000000" points="432.72,-252 252.72,-252 252.72,-216 432.72,-216 432.72,-252"/>
<text text-anchor="middle" x="342.72" y="-229.8" font-family="Courier,monospace" font-size="14.00" fill="#000000">CharacterData</text>
</g>
<!-- nodepoint&#45;&gt;CharacterData -->
<g id="edge4" class="edge">
<title>nodepoint&#45;&gt;CharacterData</title>
<path fill="none" stroke="#000000" d="M216.7225,-234C219.1834,-234 233.9006,-234 252.464,-234"/>
</g>
<!-- Entity -->
<g id="node8" class="node">
<title>Entity</title>
<polygon fill="none" stroke="#000000" points="432.72,-198 252.72,-198 252.72,-162 432.72,-162 432.72,-198"/>
<text text-anchor="middle" x="342.72" y="-175.8" font-family="Courier,monospace" font-size="14.00" fill="#000000">Entity</text>
</g>
<!-- nodepoint&#45;&gt;Entity -->
<g id="edge5" class="edge">
<title>nodepoint&#45;&gt;Entity</title>
<path fill="none" stroke="#000000" d="M217.4673,-233.8451C217.4673,-230.6777 217.4673,-180 217.4673,-180 217.4673,-180 232.7766,-180 252.6905,-180"/>
</g>
<!-- Element -->
<g id="node9" class="node">
<title>Element</title>
<polygon fill="none" stroke="#000000" points="432.72,-144 252.72,-144 252.72,-108 432.72,-108 432.72,-144"/>
<text text-anchor="middle" x="342.72" y="-121.8" font-family="Courier,monospace" font-size="14.00" fill="#000000">Element</text>
</g>
<!-- nodepoint&#45;&gt;Element -->
<g id="edge6" class="edge">
<title>nodepoint&#45;&gt;Element</title>
<path fill="none" stroke="#000000" d="M216.4673,-233.3103C216.4673,-224.1123 216.4673,-126 216.4673,-126 216.4673,-126 232.2456,-126 252.6463,-126"/>
</g>
<!-- characterdatapoint -->
<g id="node3" class="node">
<title>characterdatapoint</title>
<ellipse fill="#000000" stroke="#000000" cx="469.22" cy="-234" rx=".36" ry=".36"/>
</g>
<!-- Text -->
<g id="node11" class="node">
<title>Text</title>
<polygon fill="none" stroke="#000000" points="685.72,-279 505.72,-279 505.72,-243 685.72,-243 685.72,-279"/>
<text text-anchor="middle" x="595.72" y="-256.8" font-family="Courier,monospace" font-size="14.00" fill="#000000">Text</text>
</g>
<!-- characterdatapoint&#45;&gt;Text -->
<g id="edge9" class="edge">
<title>characterdatapoint&#45;&gt;Text</title>
<path fill="none" stroke="#000000" d="M469.4673,-234.5801C469.4673,-237.1641 469.4673,-247.5 469.4673,-247.5 469.4673,-247.5 485.2456,-247.5 505.6463,-247.5"/>
</g>
<!-- Comment -->
<g id="node12" class="node">
<title>Comment</title>
<polygon fill="none" stroke="#000000" points="685.72,-225 505.72,-225 505.72,-189 685.72,-189 685.72,-225"/>
<text text-anchor="middle" x="595.72" y="-202.8" font-family="Courier,monospace" font-size="14.00" fill="#000000">Comment</text>
</g>
<!-- characterdatapoint&#45;&gt;Comment -->
<g id="edge10" class="edge">
<title>characterdatapoint&#45;&gt;Comment</title>
<path fill="none" stroke="#000000" d="M469.4673,-233.4199C469.4673,-230.8359 469.4673,-220.5 469.4673,-220.5 469.4673,-220.5 485.2456,-220.5 505.6463,-220.5"/>
</g>
<!-- htmlelementpoint -->
<g id="node4" class="node">
<title>htmlelementpoint</title>
<ellipse fill="#000000" stroke="#000000" cx="722.08" cy="-126" rx=".36" ry=".36"/>
</g>
<!-- HTMLHeadElement -->
<g id="node14" class="node">
<title>HTMLHeadElement</title>
<polygon fill="none" stroke="#000000" points="940.4537,-252 760.4537,-252 760.4537,-216 940.4537,-216 940.4537,-252"/>
<text text-anchor="middle" x="850.4537" y="-229.8" font-family="Courier,monospace" font-size="14.00" fill="#000000">HTMLHeadElement</text>
</g>
<!-- htmlelementpoint&#45;&gt;HTMLHeadElement -->
<g id="edge13" class="edge">
<title>htmlelementpoint&#45;&gt;HTMLHeadElement</title>
<path fill="none" stroke="#000000" d="M722.4673,-126.0685C722.4673,-128.9301 722.4673,-220.5 722.4673,-220.5 722.4673,-220.5 738.9968,-220.5 760.1752,-220.5"/>
</g>
<!-- HTMLBodyElement -->
<g id="node15" class="node">
<title>HTMLBodyElement</title>
<polygon fill="none" stroke="#000000" points="940.4537,-198 760.4537,-198 760.4537,-162 940.4537,-162 940.4537,-198"/>
<text text-anchor="middle" x="850.4537" y="-175.8" font-family="Courier,monospace" font-size="14.00" fill="#000000">HTMLBodyElement</text>
</g>
<!-- htmlelementpoint&#45;&gt;HTMLBodyElement -->
<g id="edge14" class="edge">
<title>htmlelementpoint&#45;&gt;HTMLBodyElement</title>
<path fill="none" stroke="#000000" d="M722.4673,-126.142C722.4673,-129.0454 722.4673,-175.5 722.4673,-175.5 722.4673,-175.5 738.9968,-175.5 760.1752,-175.5"/>
</g>
<!-- HTMLParagraphElement -->
<g id="node16" class="node">
<title>HTMLParagraphElement</title>
<polygon fill="none" stroke="#000000" points="942.481,-144 758.4263,-144 758.4263,-108 942.481,-108 942.481,-144"/>
<text text-anchor="middle" x="850.4537" y="-121.8" font-family="Courier,monospace" font-size="14.00" fill="#000000">HTMLParagraphElement</text>
</g>
<!-- htmlelementpoint&#45;&gt;HTMLParagraphElement -->
<g id="edge15" class="edge">
<title>htmlelementpoint&#45;&gt;HTMLParagraphElement</title>
<path fill="none" stroke="#000000" d="M722.4483,-126C724.9337,-126 739.7247,-126 758.4269,-126"/>
</g>
<!-- HTMLFormElement -->
<g id="node17" class="node">
<title>HTMLFormElement</title>
<polygon fill="none" stroke="#000000" points="940.4537,-90 760.4537,-90 760.4537,-54 940.4537,-54 940.4537,-90"/>
<text text-anchor="middle" x="850.4537" y="-67.8" font-family="Courier,monospace" font-size="14.00" fill="#000000">HTMLFormElement</text>
</g>
<!-- htmlelementpoint&#45;&gt;HTMLFormElement -->
<g id="edge16" class="edge">
<title>htmlelementpoint&#45;&gt;HTMLFormElement</title>
<path fill="none" stroke="#000000" d="M722.4673,-125.8451C722.4673,-122.6777 722.4673,-72 722.4673,-72 722.4673,-72 738.9968,-72 760.1752,-72"/>
</g>
<!-- HTMLInputElement -->
<g id="node18" class="node">
<title>HTMLInputElement</title>
<polygon fill="none" stroke="#000000" points="940.4537,-36 760.4537,-36 760.4537,0 940.4537,0 940.4537,-36"/>
<text text-anchor="middle" x="850.4537" y="-13.8" font-family="Courier,monospace" font-size="14.00" fill="#000000">HTMLInputElement</text>
</g>
<!-- htmlelementpoint&#45;&gt;HTMLInputElement -->
<g id="edge17" class="edge">
<title>htmlelementpoint&#45;&gt;HTMLInputElement</title>
<path fill="none" stroke="#000000" d="M722.4673,-125.9217C722.4673,-122.6514 722.4673,-18 722.4673,-18 722.4673,-18 738.9968,-18 760.1752,-18"/>
</g>
<!-- HTMLDocument -->
<g id="node13" class="node">
<title>HTMLDocument</title>
<polygon fill="none" stroke="#000000" points="685.72,-360 505.72,-360 505.72,-324 685.72,-324 685.72,-360"/>
<text text-anchor="middle" x="595.72" y="-337.8" font-family="Courier,monospace" font-size="14.00" fill="#000000">HTMLDocument</text>
</g>
<!-- Document&#45;&gt;HTMLDocument -->
<g id="edge11" class="edge">
<title>Document&#45;&gt;HTMLDocument</title>
<path fill="none" stroke="#000000" d="M432.9873,-342C456.5444,-342 481.9323,-342 505.4875,-342"/>
</g>
<!-- CharacterData&#45;&gt;characterdatapoint -->
<g id="edge8" class="edge">
<title>CharacterData&#45;&gt;characterdatapoint</title>
<path fill="none" stroke="#000000" d="M432.9702,-234C451.4946,-234 466.2151,-234 468.8124,-234"/>
</g>
<!-- HTMLElement -->
<g id="node10" class="node">
<title>HTMLElement</title>
<polygon fill="none" stroke="#000000" points="685.72,-144 505.72,-144 505.72,-108 685.72,-108 685.72,-144"/>
<text text-anchor="middle" x="595.72" y="-121.8" font-family="Courier,monospace" font-size="14.00" fill="#000000">HTMLElement</text>
</g>
<!-- Element&#45;&gt;HTMLElement -->
<g id="edge7" class="edge">
<title>Element&#45;&gt;HTMLElement</title>
<path fill="none" stroke="#000000" d="M432.9873,-126C456.5444,-126 481.9323,-126 505.4875,-126"/>
</g>
<!-- HTMLElement&#45;&gt;htmlelementpoint -->
<g id="edge12" class="edge">
<title>HTMLElement&#45;&gt;htmlelementpoint</title>
<path fill="none" stroke="#000000" d="M685.8703,-126C704.3742,-126 719.0784,-126 721.6728,-126"/>
</g>
</g>
</svg>
