<?xml version="1.0" encoding="UTF-8" standalone="no"?>
<!DOCTYPE svg PUBLIC "-//W3C//DTD SVG 1.1//EN"
 "http://www.w3.org/Graphics/SVG/1.1/DTD/svg11.dtd">
<!-- Generated by graphviz version 2.40.1 (20161225.0304)
 -->
<!-- Title: hierarchy Pages: 1 -->
<svg width="950pt" height="476pt"
 viewBox="0.00 0.00 950.47 476.00" xmlns="http://www.w3.org/2000/svg" xmlns:xlink="http://www.w3.org/1999/xlink">
<g id="graph0" class="graph" transform="scale(1 1) rotate(0) translate(4 472)">
<title>hierarchy</title>
<polygon fill="#ffffff" stroke="transparent" points="-4,4 -4,-472 946.4673,-472 946.4673,4 -4,4"/>
<!-- noderoot -->
<g id="node1" class="node">
<title>noderoot</title>
<polygon fill="none" stroke="#000000" points="180,-306 0,-306 0,-270 180,-270 180,-306"/>
<text text-anchor="middle" x="90" y="-283.8" font-family="Courier,monospace" font-size="14.00" fill="#000000">Node</text>
</g>
<!-- nodepoint -->
<g id="node2" class="node">
<title>nodepoint</title>
<ellipse fill="#000000" stroke="#000000" cx="216.36" cy="-288" rx=".36" ry=".36"/>
</g>
<!-- noderoot&#45;&#45;nodepoint -->
<g id="edge1" class="edge">
<title>noderoot&#45;&#45;nodepoint</title>
<path fill="none" stroke="#000000" d="M180.1503,-288C198.6542,-288 213.3584,-288 215.9528,-288"/>
</g>
<!-- DocumentType -->
<g id="node5" class="node">
<title>DocumentType</title>
<polygon fill="none" stroke="#000000" points="432.72,-468 252.72,-468 252.72,-432 432.72,-432 432.72,-468"/>
<text text-anchor="middle" x="342.72" y="-445.8" font-family="Courier,monospace" font-size="14.00" fill="#000000">DocumentType</text>
</g>
<!-- nodepoint&#45;&#45;DocumentType -->
<g id="edge2" class="edge">
<title>nodepoint&#45;&#45;DocumentType</title>
<path fill="none" stroke="#000000" d="M216.4561,-288.7221C217.7538,-298.3689 232.0797,-401.7658 252.72,-423 256.0174,-426.3923 259.7226,-429.3624 263.701,-431.9626"/>
</g>
<!-- DocumentFragment -->
<g id="node6" class="node">
<title>DocumentFragment</title>
<polygon fill="none" stroke="#000000" points="432.72,-414 252.72,-414 252.72,-378 432.72,-378 432.72,-414"/>
<text text-anchor="middle" x="342.72" y="-391.8" font-family="Courier,monospace" font-size="14.00" fill="#000000">DocumentFragment</text>
</g>
<!-- nodepoint&#45;&#45;DocumentFragment -->
<g id="edge3" class="edge">
<title>nodepoint&#45;&#45;DocumentFragment</title>
<path fill="none" stroke="#000000" d="M216.4425,-288.6238C217.2869,-294.7588 224.9114,-344.602 252.72,-369 256.5214,-372.3351 260.7218,-375.2585 265.169,-377.8208"/>
</g>
<!-- Document -->
<g id="node7" class="node">
<title>Document</title>
<polygon fill="none" stroke="#000000" points="432.72,-360 252.72,-360 252.72,-324 432.72,-324 432.72,-360"/>
<text text-anchor="middle" x="342.72" y="-337.8" font-family="Courier,monospace" font-size="14.00" fill="#000000">Document</text>
</g>
<!-- nodepoint&#45;&#45;Document -->
<g id="edge4" class="edge">
<title>nodepoint&#45;&#45;Document</title>
<path fill="none" stroke="#000000" d="M216.8289,-288.4517C219.801,-291.2912 236.4164,-306.8187 252.72,-315 259.2811,-318.2924 266.3165,-321.2616 273.4566,-323.9195"/>
</g>
<!-- Attr -->
<g id="node8" class="node">
<title>Attr</title>
<polygon fill="none" stroke="#000000" points="432.72,-306 252.72,-306 252.72,-270 432.72,-270 432.72,-306"/>
<text text-anchor="middle" x="342.72" y="-283.8" font-family="Courier,monospace" font-size="14.00" fill="#000000">Attr</text>
</g>
<!-- nodepoint&#45;&#45;Attr -->
<g id="edge5" class="edge">
<title>nodepoint&#45;&#45;Attr</title>
<path fill="none" stroke="#000000" d="M216.7225,-288C219.1834,-288 233.9006,-288 252.464,-288"/>
</g>
<!-- CharacterData -->
<g id="node9" class="node">
<title>CharacterData</title>
<polygon fill="none" stroke="#000000" points="432.72,-252 252.72,-252 252.72,-216 432.72,-216 432.72,-252"/>
<text text-anchor="middle" x="342.72" y="-229.8" font-family="Courier,monospace" font-size="14.00" fill="#000000">CharacterData</text>
</g>
<!-- nodepoint&#45;&#45;CharacterData -->
<g id="edge6" class="edge">
<title>nodepoint&#45;&#45;CharacterData</title>
<path fill="none" stroke="#000000" d="M216.8289,-287.5483C219.801,-284.7088 236.4164,-269.1813 252.72,-261 259.2811,-257.7076 266.3165,-254.7384 273.4566,-252.0805"/>
</g>
<!-- Entity -->
<g id="node10" class="node">
<title>Entity</title>
<polygon fill="none" stroke="#000000" points="432.72,-198 252.72,-198 252.72,-162 432.72,-162 432.72,-198"/>
<text text-anchor="middle" x="342.72" y="-175.8" font-family="Courier,monospace" font-size="14.00" fill="#000000">Entity</text>
</g>
<!-- nodepoint&#45;&#45;Entity -->
<g id="edge7" class="edge">
<title>nodepoint&#45;&#45;Entity</title>
<path fill="none" stroke="#000000" d="M216.4425,-287.3762C217.2869,-281.2412 224.9114,-231.398 252.72,-207 256.5214,-203.6649 260.7218,-200.7415 265.169,-198.1792"/>
</g>
<!-- Element -->
<g id="node11" class="node">
<title>Element</title>
<polygon fill="none" stroke="#000000" points="432.72,-144 252.72,-144 252.72,-108 432.72,-108 432.72,-144"/>
<text text-anchor="middle" x="342.72" y="-121.8" font-family="Courier,monospace" font-size="14.00" fill="#000000">Element</text>
</g>
<!-- nodepoint&#45;&#45;Element -->
<g id="edge8" class="edge">
<title>nodepoint&#45;&#45;Element</title>
<path fill="none" stroke="#000000" d="M216.4561,-287.2779C217.7538,-277.6311 232.0797,-174.2342 252.72,-153 256.0174,-149.6077 259.7226,-146.6376 263.701,-144.0374"/>
</g>
<!-- characterdatapoint -->
<g id="node3" class="node">
<title>characterdatapoint</title>
<ellipse fill="#000000" stroke="#000000" cx="469.22" cy="-234" rx=".36" ry=".36"/>
</g>
<!-- Text -->
<g id="node13" class="node">
<title>Text</title>
<polygon fill="none" stroke="#000000" points="685.72,-279 505.72,-279 505.72,-243 685.72,-243 685.72,-279"/>
<text text-anchor="middle" x="595.72" y="-256.8" font-family="Courier,monospace" font-size="14.00" fill="#000000">Text</text>
</g>
<!-- characterdatapoint&#45;&#45;Text -->
<g id="edge11" class="edge">
<title>characterdatapoint&#45;&#45;Text</title>
<path fill="none" stroke="#000000" d="M469.5829,-234.0775C472.3074,-234.659 490.0377,-238.4433 511.3866,-243"/>
</g>
<!-- Comment -->
<g id="node14" class="node">
<title>Comment</title>
<polygon fill="none" stroke="#000000" points="685.72,-225 505.72,-225 505.72,-189 685.72,-189 685.72,-225"/>
<text text-anchor="middle" x="595.72" y="-202.8" font-family="Courier,monospace" font-size="14.00" fill="#000000">Comment</text>
</g>
<!-- characterdatapoint&#45;&#45;Comment -->
<g id="edge12" class="edge">
<title>characterdatapoint&#45;&#45;Comment</title>
<path fill="none" stroke="#000000" d="M469.5829,-233.9225C472.3074,-233.341 490.0377,-229.5567 511.3866,-225"/>
</g>
<!-- htmlelementpoint -->
<g id="node4" class="node">
<title>htmlelementpoint</title>
<ellipse fill="#000000" stroke="#000000" cx="722.08" cy="-126" rx=".36" ry=".36"/>
</g>
<!-- HTMLHeadElement -->
<g id="node16" class="node">
<title>HTMLHeadElement</title>
<polygon fill="none" stroke="#000000" points="940.4537,-252 760.4537,-252 760.4537,-216 940.4537,-216 940.4537,-252"/>
<text text-anchor="middle" x="850.4537" y="-229.8" font-family="Courier,monospace" font-size="14.00" fill="#000000">HTMLHeadElement</text>
</g>
<!-- htmlelementpoint&#45;&#45;HTMLHeadElement -->
<g id="edge15" class="edge">
<title>htmlelementpoint&#45;&#45;HTMLHeadElement</title>
<path fill="none" stroke="#000000" d="M722.1616,-126.6247C722.9977,-132.7693 730.5579,-182.686 758.44,-207 762.3297,-210.3919 766.6266,-213.3583 771.1751,-215.9525"/>
</g>
<!-- HTMLBodyElement -->
<g id="node17" class="node">
<title>HTMLBodyElement</title>
<polygon fill="none" stroke="#000000" points="940.4537,-198 760.4537,-198 760.4537,-162 940.4537,-162 940.4537,-198"/>
<text text-anchor="middle" x="850.4537" y="-175.8" font-family="Courier,monospace" font-size="14.00" fill="#000000">HTMLBodyElement</text>
</g>
<!-- htmlelementpoint&#45;&#45;HTMLBodyElement -->
<g id="edge16" class="edge">
<title>htmlelementpoint&#45;&#45;HTMLBodyElement</title>
<path fill="none" stroke="#000000" d="M722.5483,-126.453C725.5164,-129.3004 742.1118,-144.8679 758.44,-153 764.997,-156.2656 772.0182,-159.2063 779.1503,-161.8373"/>
</g>
<!-- HTMLParagraphElement -->
<g id="node18" class="node">
<title>HTMLParagraphElement</title>
<polygon fill="none" stroke="#000000" points="942.481,-144 758.4263,-144 758.4263,-108 942.481,-108 942.481,-144"/>
<text text-anchor="middle" x="850.4537" y="-121.8" font-family="Courier,monospace" font-size="14.00" fill="#000000">HTMLParagraphElement</text>
</g>
<!-- htmlelementpoint&#45;&#45;HTMLParagraphElement -->
<g id="edge17" class="edge">
<title>htmlelementpoint&#45;&#45;HTMLParagraphElement</title>
<path fill="none" stroke="#000000" d="M722.4483,-126C724.9337,-126 739.7247,-126 758.4269,-126"/>
</g>
<!-- HTMLFormElement -->
<g id="node19" class="node">
<title>HTMLFormElement</title>
<polygon fill="none" stroke="#000000" points="940.4537,-90 760.4537,-90 760.4537,-54 940.4537,-54 940.4537,-90"/>
<text text-anchor="middle" x="850.4537" y="-67.8" font-family="Courier,monospace" font-size="14.00" fill="#000000">HTMLFormElement</text>
</g>
<!-- htmlelementpoint&#45;&#45;HTMLFormElement -->
<g id="edge18" class="edge">
<title>htmlelementpoint&#45;&#45;HTMLFormElement</title>
<path fill="none" stroke="#000000" d="M722.5483,-125.547C725.5164,-122.6996 742.1118,-107.1321 758.44,-99 764.997,-95.7344 772.0182,-92.7937 779.1503,-90.1627"/>
</g>
<!-- HTMLInputElement -->
<g id="node20" class="node">
<title>HTMLInputElement</title>
<polygon fill="none" stroke="#000000" points="940.4537,-36 760.4537,-36 760.4537,0 940.4537,0 940.4537,-36"/>
<text text-anchor="middle" x="850.4537" y="-13.8" font-family="Courier,monospace" font-size="14.00" fill="#000000">HTMLInputElement</text>
</g>
<!-- htmlelementpoint&#45;&#45;HTMLInputElement -->
<g id="edge19" class="edge">
<title>htmlelementpoint&#45;&#45;HTMLInputElement</title>
<path fill="none" stroke="#000000" d="M722.1616,-125.3753C722.9977,-119.2307 730.5579,-69.314 758.44,-45 762.3297,-41.6081 766.6266,-38.6417 771.1751,-36.0475"/>
</g>
<!-- HTMLDocument -->
<g id="node15" class="node">
<title>HTMLDocument</title>
<polygon fill="none" stroke="#000000" points="685.72,-360 505.72,-360 505.72,-324 685.72,-324 685.72,-360"/>
<text text-anchor="middle" x="595.72" y="-337.8" font-family="Courier,monospace" font-size="14.00" fill="#000000">HTMLDocument</text>
</g>
<!-- Document&#45;&#45;HTMLDocument -->
<g id="edge13" class="edge">
<title>Document&#45;&#45;HTMLDocument</title>
<path fill="none" stroke="#000000" d="M432.9873,-342C456.5444,-342 481.9323,-342 505.4875,-342"/>
</g>
<!-- CharacterData&#45;&#45;characterdatapoint -->
<g id="edge10" class="edge">
<title>CharacterData&#45;&#45;characterdatapoint</title>
<path fill="none" stroke="#000000" d="M432.9702,-234C451.4946,-234 466.2151,-234 468.8124,-234"/>
</g>
<!-- HTMLElement -->
<g id="node12" class="node">
<title>HTMLElement</title>
<polygon fill="none" stroke="#000000" points="685.72,-144 505.72,-144 505.72,-108 685.72,-108 685.72,-144"/>
<text text-anchor="middle" x="595.72" y="-121.8" font-family="Courier,monospace" font-size="14.00" fill="#000000">HTMLElement</text>
</g>
<!-- Element&#45;&#45;HTMLElement -->
<g id="edge9" class="edge">
<title>Element&#45;&#45;HTMLElement</title>
<path fill="none" stroke="#000000" d="M432.9873,-126C456.5444,-126 481.9323,-126 505.4875,-126"/>
</g>
<!-- HTMLElement&#45;&#45;htmlelementpoint -->
<g id="edge14" class="edge">
<title>HTMLElement&#45;&#45;htmlelementpoint</title>
<path fill="none" stroke="#000000" d="M685.8703,-126C704.3742,-126 719.0784,-126 721.6728,-126"/>
</g>
</g>
</svg>
