<?xml version="1.0" encoding="UTF-8" standalone="no"?>
<!DOCTYPE svg PUBLIC "-//W3C//DTD SVG 1.1//EN"
 "http://www.w3.org/Graphics/SVG/1.1/DTD/svg11.dtd">
<!-- Generated by graphviz version 2.40.1 (20161225.0304)
 -->
<!-- Title: hierarchy Pages: 1 -->
<svg width="585pt" height="314pt"
 viewBox="0.00 0.00 585.44 314.00" xmlns="http://www.w3.org/2000/svg" xmlns:xlink="http://www.w3.org/1999/xlink">
<g id="graph0" class="graph" transform="scale(1 1) rotate(0) translate(4 310)">
<title>hierarchy</title>
<polygon fill="#ffffff" stroke="transparent" points="-4,4 -4,-310 581.44,-310 581.44,4 -4,4"/>
<!-- windowpoint -->
<g id="node1" class="node">
<title>windowpoint</title>
<ellipse fill="#000000" stroke="#000000" cx="180.36" cy="-180" rx=".36" ry=".36"/>
</g>
<!-- frame -->
<g id="node4" class="node">
<title>frame</title>
<polygon fill="none" stroke="#000000" points="360.72,-306 216.72,-306 216.72,-270 360.72,-270 360.72,-306"/>
<text text-anchor="middle" x="288.72" y="-283.8" font-family="Courier,monospace" font-size="14.00" fill="#000000">frame</text>
</g>
<!-- windowpoint&#45;&gt;frame -->
<g id="edge2" class="edge">
<title>windowpoint&#45;&gt;frame</title>
<path fill="none" stroke="#000000" d="M180.44,-180.6897C180.44,-189.8877 180.44,-288 180.44,-288 180.44,-288 196.6334,-288 216.4957,-288"/>
</g>
<!-- location -->
<g id="node5" class="node">
<title>location</title>
<polygon fill="none" stroke="#000000" points="360.72,-252 216.72,-252 216.72,-216 360.72,-216 360.72,-252"/>
<text text-anchor="middle" x="288.72" y="-229.8" font-family="Courier,monospace" font-size="14.00" fill="#000000">location</text>
</g>
<!-- windowpoint&#45;&gt;location -->
<g id="edge3" class="edge">
<title>windowpoint&#45;&gt;location</title>
<path fill="none" stroke="#000000" d="M181.44,-180.1549C181.44,-183.3223 181.44,-234 181.44,-234 181.44,-234 197.1614,-234 216.5675,-234"/>
</g>
<!-- history -->
<g id="node6" class="node">
<title>history</title>
<polygon fill="none" stroke="#000000" points="360.72,-198 216.72,-198 216.72,-162 360.72,-162 360.72,-198"/>
<text text-anchor="middle" x="288.72" y="-175.8" font-family="Courier,monospace" font-size="14.00" fill="#000000">history</text>
</g>
<!-- windowpoint&#45;&gt;history -->
<g id="edge4" class="edge">
<title>windowpoint&#45;&gt;history</title>
<path fill="none" stroke="#000000" d="M181.052,-180C184.3505,-180 199.0457,-180 216.5694,-180"/>
</g>
<!-- document -->
<g id="node7" class="node">
<title>document</title>
<polygon fill="none" stroke="#000000" points="360.72,-144 216.72,-144 216.72,-108 360.72,-108 360.72,-144"/>
<text text-anchor="middle" x="288.72" y="-121.8" font-family="Courier,monospace" font-size="14.00" fill="#000000">document</text>
</g>
<!-- windowpoint&#45;&gt;document -->
<g id="edge5" class="edge">
<title>windowpoint&#45;&gt;document</title>
<path fill="none" stroke="#000000" d="M181.44,-179.8451C181.44,-176.6777 181.44,-126 181.44,-126 181.44,-126 197.1614,-126 216.5675,-126"/>
</g>
<!-- navigator -->
<g id="node8" class="node">
<title>navigator</title>
<polygon fill="none" stroke="#000000" points="360.72,-90 216.72,-90 216.72,-54 360.72,-54 360.72,-90"/>
<text text-anchor="middle" x="288.72" y="-67.8" font-family="Courier,monospace" font-size="14.00" fill="#000000">navigator</text>
</g>
<!-- windowpoint&#45;&gt;navigator -->
<g id="edge6" class="edge">
<title>windowpoint&#45;&gt;navigator</title>
<path fill="none" stroke="#000000" d="M180.44,-179.3103C180.44,-170.1123 180.44,-72 180.44,-72 180.44,-72 196.6334,-72 216.4957,-72"/>
</g>
<!-- documentpoint -->
<g id="node2" class="node">
<title>documentpoint</title>
<ellipse fill="#000000" stroke="#000000" cx="397.08" cy="-126" rx=".36" ry=".36"/>
</g>
<!-- anchors -->
<g id="node9" class="node">
<title>anchors</title>
<polygon fill="none" stroke="#000000" points="577.44,-252 433.44,-252 433.44,-216 577.44,-216 577.44,-252"/>
<text text-anchor="middle" x="505.44" y="-229.8" font-family="Courier,monospace" font-size="14.00" fill="#000000">anchors</text>
</g>
<!-- documentpoint&#45;&gt;anchors -->
<g id="edge8" class="edge">
<title>documentpoint&#45;&gt;anchors</title>
<path fill="none" stroke="#000000" d="M397.44,-126.0783C397.44,-129.3486 397.44,-234 397.44,-234 397.44,-234 413.5916,-234 433.4024,-234"/>
</g>
<!-- embeds -->
<g id="node10" class="node">
<title>embeds</title>
<polygon fill="none" stroke="#000000" points="577.44,-198 433.44,-198 433.44,-162 577.44,-162 577.44,-198"/>
<text text-anchor="middle" x="505.44" y="-175.8" font-family="Courier,monospace" font-size="14.00" fill="#000000">embeds</text>
</g>
<!-- documentpoint&#45;&gt;embeds -->
<g id="edge9" class="edge">
<title>documentpoint&#45;&gt;embeds</title>
<path fill="none" stroke="#000000" d="M397.44,-126.1549C397.44,-129.3223 397.44,-180 397.44,-180 397.44,-180 413.5916,-180 433.4024,-180"/>
</g>
<!-- forms -->
<g id="node11" class="node">
<title>forms</title>
<polygon fill="none" stroke="#000000" points="577.44,-144 433.44,-144 433.44,-108 577.44,-108 577.44,-144"/>
<text text-anchor="middle" x="505.44" y="-121.8" font-family="Courier,monospace" font-size="14.00" fill="#000000">forms</text>
</g>
<!-- documentpoint&#45;&gt;forms -->
<g id="edge10" class="edge">
<title>documentpoint&#45;&gt;forms</title>
<path fill="none" stroke="#000000" d="M397.772,-126C401.0705,-126 415.7657,-126 433.2894,-126"/>
</g>
<!-- images -->
<g id="node12" class="node">
<title>images</title>
<polygon fill="none" stroke="#000000" points="577.44,-90 433.44,-90 433.44,-54 577.44,-54 577.44,-90"/>
<text text-anchor="middle" x="505.44" y="-67.8" font-family="Courier,monospace" font-size="14.00" fill="#000000">images</text>
</g>
<!-- documentpoint&#45;&gt;images -->
<g id="edge11" class="edge">
<title>documentpoint&#45;&gt;images</title>
<path fill="none" stroke="#000000" d="M397.44,-125.8451C397.44,-122.6777 397.44,-72 397.44,-72 397.44,-72 413.5916,-72 433.4024,-72"/>
</g>
<!-- links -->
<g id="node13" class="node">
<title>links</title>
<polygon fill="none" stroke="#000000" points="577.44,-36 433.44,-36 433.44,0 577.44,0 577.44,-36"/>
<text text-anchor="middle" x="505.44" y="-13.8" font-family="Courier,monospace" font-size="14.00" fill="#000000">links</text>
</g>
<!-- documentpoint&#45;&gt;links -->
<g id="edge12" class="edge">
<title>documentpoint&#45;&gt;links</title>
<path fill="none" stroke="#000000" d="M397.44,-125.9217C397.44,-122.6514 397.44,-18 397.44,-18 397.44,-18 413.5916,-18 433.4024,-18"/>
</g>
<!-- window -->
<g id="node3" class="node">
<title>window</title>
<polygon fill="none" stroke="#000000" points="144,-198 0,-198 0,-162 144,-162 144,-198"/>
<text text-anchor="middle" x="72" y="-175.8" font-family="Courier,monospace" font-size="14.00" fill="#000000">window</text>
</g>
<!-- window&#45;&gt;windowpoint -->
<g id="edge1" class="edge">
<title>window&#45;&gt;windowpoint</title>
<path fill="none" stroke="#000000" d="M144.2777,-180C162.2911,-180 177.2892,-180 179.943,-180"/>
</g>
<!-- document&#45;&gt;documentpoint -->
<g id="edge7" class="edge">
<title>document&#45;&gt;documentpoint</title>
<path fill="none" stroke="#000000" d="M360.9977,-126C379.0111,-126 394.0092,-126 396.663,-126"/>
</g>
</g>
</svg>
