<?xml version="1.0" encoding="UTF-8" standalone="no"?>
<!DOCTYPE svg PUBLIC "-//W3C//DTD SVG 1.1//EN"
 "http://www.w3.org/Graphics/SVG/1.1/DTD/svg11.dtd">
<!-- Generated by graphviz version 2.40.1 (20161225.0304)
 -->
<!-- Title: hierarchy Pages: 1 -->
<svg width="1376pt" height="153pt"
 viewBox="0.00 0.00 1376.00 152.72" xmlns="http://www.w3.org/2000/svg" xmlns:xlink="http://www.w3.org/1999/xlink">
<g id="graph0" class="graph" transform="scale(1 1) rotate(0) translate(4 148.72)">
<title>hierarchy</title>
<polygon fill="#ffffff" stroke="transparent" points="-4,4 -4,-148.72 1372,-148.72 1372,4 -4,4"/>
<!-- EventTargetpoint -->
<g id="node1" class="node">
<title>EventTargetpoint</title>
<ellipse fill="#000000" stroke="#000000" cx="684" cy="-72.36" rx=".36" ry=".36"/>
</g>
<!-- Element -->
<g id="node3" class="node">
<title>Element</title>
<polygon fill="none" stroke="#000000" points="180,-36 0,-36 0,0 180,0 180,-36"/>
<text text-anchor="middle" x="90" y="-13.8" font-family="Courier,monospace" font-size="14.00" fill="#000000">Element</text>
</g>
<!-- EventTargetpoint&#45;&gt;Element -->
<g id="edge2" class="edge">
<title>EventTargetpoint&#45;&gt;Element</title>
<path fill="none" stroke="#000000" d="M683.5492,-72.3458C671.0859,-71.9505 402.6988,-63.1972 189,-36 186.054,-35.6251 183.0627,-35.2205 180.0451,-34.792"/>
</g>
<!-- document -->
<g id="node4" class="node">
<title>document</title>
<polygon fill="none" stroke="#000000" points="378,-36 198,-36 198,0 378,0 378,-36"/>
<text text-anchor="middle" x="288" y="-13.8" font-family="Courier,monospace" font-size="14.00" fill="#000000">document</text>
</g>
<!-- EventTargetpoint&#45;&gt;document -->
<g id="edge3" class="edge">
<title>EventTargetpoint&#45;&gt;document</title>
<path fill="none" stroke="#000000" d="M683.5212,-72.3124C673.688,-71.3329 514.367,-55.3585 387,-36 384.0639,-35.5537 381.0813,-35.0874 378.0711,-34.6056"/>
</g>
<!-- window -->
<g id="node5" class="node">
<title>window</title>
<polygon fill="none" stroke="#000000" points="576,-36 396,-36 396,0 576,0 576,-36"/>
<text text-anchor="middle" x="486" y="-13.8" font-family="Courier,monospace" font-size="14.00" fill="#000000">window</text>
</g>
<!-- EventTargetpoint&#45;&gt;window -->
<g id="edge4" class="edge">
<title>EventTargetpoint&#45;&gt;window</title>
<path fill="none" stroke="#000000" d="M683.432,-72.2041C676.4457,-70.286 606.4186,-51.0604 551.7248,-36.0445"/>
</g>
<!-- XMLHttpRequest -->
<g id="node6" class="node">
<title>XMLHttpRequest</title>
<polygon fill="none" stroke="#000000" points="774,-36 594,-36 594,0 774,0 774,-36"/>
<text text-anchor="middle" x="684" y="-13.8" font-family="Courier,monospace" font-size="14.00" fill="#000000">XMLHttpRequest</text>
</g>
<!-- EventTargetpoint&#45;&gt;XMLHttpRequest -->
<g id="edge5" class="edge">
<title>EventTargetpoint&#45;&gt;XMLHttpRequest</title>
<path fill="none" stroke="#000000" d="M684,-71.7495C684,-68.2502 684,-50.3982 684,-36.2145"/>
</g>
<!-- AudioNode -->
<g id="node7" class="node">
<title>AudioNode</title>
<polygon fill="none" stroke="#000000" points="972,-36 792,-36 792,0 972,0 972,-36"/>
<text text-anchor="middle" x="882" y="-13.8" font-family="Courier,monospace" font-size="14.00" fill="#000000">AudioNode</text>
</g>
<!-- EventTargetpoint&#45;&gt;AudioNode -->
<g id="edge6" class="edge">
<title>EventTargetpoint&#45;&gt;AudioNode</title>
<path fill="none" stroke="#000000" d="M684.568,-72.2041C691.5543,-70.286 761.5814,-51.0604 816.2752,-36.0445"/>
</g>
<!-- AudioContext -->
<g id="node8" class="node">
<title>AudioContext</title>
<polygon fill="none" stroke="#000000" points="1170,-36 990,-36 990,0 1170,0 1170,-36"/>
<text text-anchor="middle" x="1080" y="-13.8" font-family="Courier,monospace" font-size="14.00" fill="#000000">AudioContext</text>
</g>
<!-- EventTargetpoint&#45;&gt;AudioContext -->
<g id="edge7" class="edge">
<title>EventTargetpoint&#45;&gt;AudioContext</title>
<path fill="none" stroke="#000000" d="M684.4788,-72.3124C694.312,-71.3329 853.633,-55.3585 981,-36 983.9361,-35.5537 986.9187,-35.0874 989.9289,-34.6056"/>
</g>
<!-- others -->
<g id="node9" class="node">
<title>others</title>
<polygon fill="none" stroke="#000000" points="1368,-36 1188,-36 1188,0 1368,0 1368,-36"/>
<text text-anchor="middle" x="1278" y="-13.8" font-family="Courier,monospace" font-size="14.00" fill="#000000">others</text>
</g>
<!-- EventTargetpoint&#45;&gt;others -->
<g id="edge8" class="edge">
<title>EventTargetpoint&#45;&gt;others</title>
<path fill="none" stroke="#000000" d="M684.4508,-72.3458C696.9141,-71.9505 965.3012,-63.1972 1179,-36 1181.946,-35.6251 1184.9373,-35.2205 1187.9549,-34.792"/>
</g>
<!-- EventTarget -->
<g id="node2" class="node">
<title>EventTarget</title>
<polygon fill="none" stroke="#000000" points="774,-144.72 594,-144.72 594,-108.72 774,-108.72 774,-144.72"/>
<text text-anchor="middle" x="684" y="-122.52" font-family="Courier,monospace" font-size="14.00" fill="#000000">EventTarget</text>
</g>
<!-- EventTarget&#45;&gt;EventTargetpoint -->
<g id="edge1" class="edge">
<title>EventTarget&#45;&gt;EventTargetpoint</title>
<path fill="none" stroke="#000000" d="M684,-108.6189C684,-94.2881 684,-76.1528 684,-72.8784"/>
</g>
</g>
</svg>
