<?xml version="1.0" encoding="UTF-8" standalone="no"?>
<!DOCTYPE svg PUBLIC "-//W3C//DTD SVG 1.1//EN"
 "http://www.w3.org/Graphics/SVG/1.1/DTD/svg11.dtd">
<!-- Generated by graphviz version 2.40.1 (20161225.0304)
 -->
<!-- Title: hierarchy Pages: 1 -->
<svg width="980pt" height="153pt"
 viewBox="0.00 0.00 980.00 152.72" xmlns="http://www.w3.org/2000/svg" xmlns:xlink="http://www.w3.org/1999/xlink">
<g id="graph0" class="graph" transform="scale(1 1) rotate(0) translate(4 148.72)">
<title>hierarchy</title>
<polygon fill="#ffffff" stroke="transparent" points="-4,4 -4,-148.72 976,-148.72 976,4 -4,4"/>
<!-- EventTargetpoint -->
<g id="node1" class="node">
<title>EventTargetpoint</title>
<ellipse fill="#000000" stroke="#000000" cx="486" cy="-72.36" rx=".36" ry=".36"/>
</g>
<!-- Element -->
<g id="node3" class="node">
<title>Element</title>
<polygon fill="none" stroke="#000000" points="180,-36 0,-36 0,0 180,0 180,-36"/>
<text text-anchor="middle" x="90" y="-13.8" font-family="Courier,monospace" font-size="14.00" fill="#000000">Element</text>
</g>
<!-- EventTargetpoint&#45;&gt;Element -->
<g id="edge2" class="edge">
<title>EventTargetpoint&#45;&gt;Element</title>
<path fill="none" stroke="#000000" d="M485.9279,-72C479.8367,-72 90,-72 90,-72 90,-72 90,-51.9478 90,-36.2819"/>
</g>
<!-- document -->
<g id="node4" class="node">
<title>document</title>
<polygon fill="none" stroke="#000000" points="378,-36 198,-36 198,0 378,0 378,-36"/>
<text text-anchor="middle" x="288" y="-13.8" font-family="Courier,monospace" font-size="14.00" fill="#000000">document</text>
</g>
<!-- EventTargetpoint&#45;&gt;document -->
<g id="edge3" class="edge">
<title>EventTargetpoint&#45;&gt;document</title>
<path fill="none" stroke="#000000" d="M485.8565,-72C479.8608,-72 288,-72 288,-72 288,-72 288,-51.9478 288,-36.2819"/>
</g>
<!-- window -->
<g id="node5" class="node">
<title>window</title>
<polygon fill="none" stroke="#000000" points="576,-36 396,-36 396,0 576,0 576,-36"/>
<text text-anchor="middle" x="486" y="-13.8" font-family="Courier,monospace" font-size="14.00" fill="#000000">window</text>
</g>
<!-- EventTargetpoint&#45;&gt;window -->
<g id="edge4" class="edge">
<title>EventTargetpoint&#45;&gt;window</title>
<path fill="none" stroke="#000000" d="M486,-71.7495C486,-68.2502 486,-50.3982 486,-36.2145"/>
</g>
<!-- XMLHttpRequest -->
<g id="node6" class="node">
<title>XMLHttpRequest</title>
<polygon fill="none" stroke="#000000" points="774,-36 594,-36 594,0 774,0 774,-36"/>
<text text-anchor="middle" x="684" y="-13.8" font-family="Courier,monospace" font-size="14.00" fill="#000000">XMLHttpRequest</text>
</g>
<!-- EventTargetpoint&#45;&gt;XMLHttpRequest -->
<g id="edge5" class="edge">
<title>EventTargetpoint&#45;&gt;XMLHttpRequest</title>
<path fill="none" stroke="#000000" d="M486.1435,-72C492.1392,-72 684,-72 684,-72 684,-72 684,-51.9478 684,-36.2819"/>
</g>
<!-- others -->
<g id="node7" class="node">
<title>others</title>
<polygon fill="none" stroke="#000000" points="972,-36 792,-36 792,0 972,0 972,-36"/>
<text text-anchor="middle" x="882" y="-13.8" font-family="Courier,monospace" font-size="14.00" fill="#000000">others</text>
</g>
<!-- EventTargetpoint&#45;&gt;others -->
<g id="edge6" class="edge">
<title>EventTargetpoint&#45;&gt;others</title>
<path fill="none" stroke="#000000" d="M486.0721,-72C492.1633,-72 882,-72 882,-72 882,-72 882,-51.9478 882,-36.2819"/>
</g>
<!-- EventTarget -->
<g id="node2" class="node">
<title>EventTarget</title>
<polygon fill="none" stroke="#000000" points="576,-144.72 396,-144.72 396,-108.72 576,-108.72 576,-144.72"/>
<text text-anchor="middle" x="486" y="-122.52" font-family="Courier,monospace" font-size="14.00" fill="#000000">EventTarget</text>
</g>
<!-- EventTarget&#45;&gt;EventTargetpoint -->
<g id="edge1" class="edge">
<title>EventTarget&#45;&gt;EventTargetpoint</title>
<path fill="none" stroke="#000000" d="M486,-108.6189C486,-94.2881 486,-76.1528 486,-72.8784"/>
</g>
</g>
</svg>
