<?xml version="1.0" encoding="UTF-8" standalone="no"?>
<!DOCTYPE svg PUBLIC "-//W3C//DTD SVG 1.1//EN"
 "http://www.w3.org/Graphics/SVG/1.1/DTD/svg11.dtd">
<!-- Generated by graphviz version 2.40.1 (20161225.0304)
 -->
<!-- Title: hierarchy Pages: 1 -->
<svg width="782pt" height="153pt"
 viewBox="0.00 0.00 782.00 152.72" xmlns="http://www.w3.org/2000/svg" xmlns:xlink="http://www.w3.org/1999/xlink">
<g id="graph0" class="graph" transform="scale(1 1) rotate(0) translate(4 148.72)">
<title>hierarchy</title>
<polygon fill="#ffffff" stroke="transparent" points="-4,4 -4,-148.72 778,-148.72 778,4 -4,4"/>
<!-- globalpoint -->
<g id="node1" class="node">
<title>globalpoint</title>
<ellipse fill="#000000" stroke="#000000" cx="387" cy="-72.36" rx=".36" ry=".36"/>
</g>
<!-- HTMLElement -->
<g id="node3" class="node">
<title>HTMLElement</title>
<polygon fill="none" stroke="#000000" points="180,-36 0,-36 0,0 180,0 180,-36"/>
<text text-anchor="middle" x="90" y="-13.8" font-family="Courier,monospace" font-size="14.00" fill="#000000">HTMLElement</text>
</g>
<!-- globalpoint&#45;&gt;HTMLElement -->
<g id="edge2" class="edge">
<title>globalpoint&#45;&gt;HTMLElement</title>
<path fill="none" stroke="#000000" d="M386.5182,-72.2718C378.2201,-70.753 264.4672,-49.9328 180.3195,-34.5312"/>
</g>
<!-- Document -->
<g id="node4" class="node">
<title>Document</title>
<polygon fill="none" stroke="#000000" points="378,-36 198,-36 198,0 378,0 378,-36"/>
<text text-anchor="middle" x="288" y="-13.8" font-family="Courier,monospace" font-size="14.00" fill="#000000">Document</text>
</g>
<!-- globalpoint&#45;&gt;Document -->
<g id="edge3" class="edge">
<title>globalpoint&#45;&gt;Document</title>
<path fill="none" stroke="#000000" d="M386.3678,-72.0129C381.3616,-69.264 347.6218,-50.7378 321.0344,-36.1389"/>
</g>
<!-- Window -->
<g id="node5" class="node">
<title>Window</title>
<polygon fill="none" stroke="#000000" points="576,-36 396,-36 396,0 576,0 576,-36"/>
<text text-anchor="middle" x="486" y="-13.8" font-family="Courier,monospace" font-size="14.00" fill="#000000">Window</text>
</g>
<!-- globalpoint&#45;&gt;Window -->
<g id="edge4" class="edge">
<title>globalpoint&#45;&gt;Window</title>
<path fill="none" stroke="#000000" d="M387.6322,-72.0129C392.6384,-69.264 426.3782,-50.7378 452.9656,-36.1389"/>
</g>
<!-- others -->
<g id="node6" class="node">
<title>others</title>
<polygon fill="none" stroke="#000000" points="774,-36 594,-36 594,0 774,0 774,-36"/>
<text text-anchor="middle" x="684" y="-13.8" font-family="Courier,monospace" font-size="14.00" fill="#000000">others</text>
</g>
<!-- globalpoint&#45;&gt;others -->
<g id="edge5" class="edge">
<title>globalpoint&#45;&gt;others</title>
<path fill="none" stroke="#000000" d="M387.4818,-72.2718C395.7799,-70.753 509.5328,-49.9328 593.6805,-34.5312"/>
</g>
<!-- GlobalEventHandlers -->
<g id="node2" class="node">
<title>GlobalEventHandlers</title>
<polygon fill="none" stroke="#000000" points="477,-144.72 297,-144.72 297,-108.72 477,-108.72 477,-144.72"/>
<text text-anchor="middle" x="387" y="-122.52" font-family="Courier,monospace" font-size="14.00" fill="#000000">GlobalEventHandlers</text>
</g>
<!-- GlobalEventHandlers&#45;&gt;globalpoint -->
<g id="edge1" class="edge">
<title>GlobalEventHandlers&#45;&gt;globalpoint</title>
<path fill="none" stroke="#000000" d="M387,-108.6189C387,-94.2881 387,-76.1528 387,-72.8784"/>
</g>
</g>
</svg>
